<svg viewBox="0 0 800 800" xmlns="http://www.w3.org/2000/svg"><path d="M639.2916063585657,288.007170319711 L639.5563094629447,232.5311840093407 M158.03474440837763,565.8609491160067 L157.76408976006488,510.0752244562992 M639.2916063585657,288.007170319711 L659.367008714645,300.5107558371515 M659.367008714645,300.5107558371515 L677.4982979841956,313.9793937352534 M677.4982979841956,313.9793937352534 L693.5461828929643,328.3135161919082 M693.5461828929643,328.3135161919082 L707.3863651170019,343.40681166571244 M707.3863651170019,343.40681166571244 L718.9105461263816,359.1469212988082 M718.9105461263816,359.1469212988082 L728.0273659674951,375.41623488292566 M728.0273659674951,375.41623488292566 L734.6631463209993,392.0927185504873 M734.6631463209993,392.0927185504873 L738.7626215945296,409.050800595879 M738.7626215945296,409.050800595879 L740.2894874044525,426.162243665647 M740.2894874044525,426.162243665647 L739.2268818222517,443.2971372637489 M739.2268818222517,443.2971372637489 L735.5775618176233,460.3248585101969 M735.5775618176233,460.3248585101969 L729.3641547907123,477.11505439357643 M729.3641547907123,477.11505439357643 L720.6290939488011,493.5386987630309 M720.6290939488011,493.5386987630309 L709.434458564716,509.46906921219284 M709.434458564716,509.46906921219284 L695.8615953193618,524.7827752802777 M695.8615953193618,524.7827752802777 L680.0106798371809,539.3607616503265 M680.0106798371809,539.3607616503265 L662.0000250364501,553.0893078288161 M662.0000250364501,553.0893078288161 L641.9652555916227,565.8609491160065 M641.9652555916227,565.8609491160065 L620.0583095070554,577.575400978862 M620.0583095070554,577.575400978862 L596.4463286095306,588.1404244309866 M596.4463286095306,588.1404244309866 L571.3103630849378,597.472607025892 M571.3103630849378,597.472607025892 L544.8439275855195,605.4980984601227 M544.8439275855195,605.4980984601227 L517.2515117310867,612.1532594496622 M517.2515117310867,612.1532594496622 L488.74689992583683,617.3852417481118 M488.74689992583683,617.3852417481118 L459.5514286378358,621.1524233886653 M459.5514286378358,621.1524233886653 L429.8921448172247,623.4248065420132 M429.8921448172247,623.4248065420132 L399.99999999999994,624.1842788640896 M399.99999999999994,624.1842788640896 L370.10785518277527,623.4248065420132 M370.10785518277527,623.4248065420132 L340.44857136216416,621.1524233886653 M340.44857136216416,621.1524233886653 L311.25310007416317,617.3852417481116 M311.25310007416317,617.3852417481116 L282.7484882689132,612.1532594496622 M282.7484882689132,612.1532594496622 L255.15607241448043,605.4980984601227 M255.15607241448043,605.4980984601227 L228.68963691506218,597.472607025892 M228.68963691506218,597.472607025892 L203.55367139046925,588.1404244309866 M203.55367139046925,588.1404244309866 L179.94169049294462,577.5754009788619 M179.94169049294462,577.5754009788619 L158.03474440837763,565.8609491160067 M639.5563094629447,232.5311840093407 L659.6540635407122,245.02068369468753 M659.6540635407122,245.02068369468753 L677.8055860816422,258.4741641303199 M677.8055860816422,258.4741641303199 L693.871429015544,272.7921728250825 M693.871429015544,272.7921728250825 L707.7271526237598,287.86852084474594 M707.7271526237598,287.86852084474594 L719.2643335899205,303.59097831495797 M719.2643335899205,303.59097831495797 L728.3915049501433,319.8420693858867 M728.3915049501433,319.8420693858867 L735.0349001340386,336.4998989001808 M735.0349001340386,336.4998989001808 L739.1391850555872,353.4390371428446 M739.1391850555872,353.4390371428446 L740.6680074126889,370.53139099464715 M740.6680074126889,370.53139099464715 L739.6044786952233,387.6471952876966 M739.6044786952233,387.6471952876966 L735.9513510606449,404.65597247308904 M735.9513510606449,404.65597247308904 L729.7312693859362,421.42751378231196 M729.7312693859362,421.42751378231196 L720.9867068096199,437.8329350691862 M720.9867068096199,437.8329350691862 L709.779805037406,453.7456526564296 M709.779805037406,453.7456526564296 L696.1919954709273,469.0424104645951 M696.1919954709273,469.0424104645951 L680.3235604381598,483.60428218627106 M680.3235604381598,483.60428218627106 L662.2929409260962,497.31766996331464 M662.2929409260962,497.31766996331464 L642.2359102399355,510.07522445629905 M642.2359102399355,510.07522445629905 L620.3045745417188,521.7767683234795 M620.3045745417188,521.7767683234795 L596.6662621413715,532.3301607786178 M596.6662621413715,532.3301607786178 L571.5022265802055,541.6520778574632 M571.5022265802055,541.6520778574632 L545.0062010756203,549.6687473419402 M545.0062010756203,549.6687473419402 L517.3829072666318,556.3165970465734 M517.3829072666318,556.3165970465734 L488.8463730223927,561.5428343117325 M488.8463730223927,561.5428343117325 L459.6181876080697,565.3058808651919 M459.6181876080697,565.3058808651919 L429.925657849476,567.5757703227733 M429.925657849476,567.5757703227733 L399.99999999999994,568.3344093080899 M399.99999999999994,568.3344093080899 L370.07434215052393,567.5757703227733 M370.07434215052393,567.5757703227733 L340.38181239193017,565.3058808651919 M340.38181239193017,565.3058808651919 L311.1536269776073,561.5428343117325 M311.1536269776073,561.5428343117325 L282.6170927333681,556.3165970465734 M282.6170927333681,556.3165970465734 L254.99379892437966,549.6687473419402 M254.99379892437966,549.6687473419402 L228.49777341979444,541.652077857463 M228.49777341979444,541.652077857463 L203.33373785862847,532.3301607786177 M203.33373785862847,532.3301607786177 L179.69542545828114,521.7767683234795 M179.69542545828114,521.7767683234795 L157.76408976006488,510.0752244562992 M158.03474440837763,565.8609491160067 L137.99997496354985,553.089307828816 M137.99997496354985,553.089307828816 L119.98932016281901,539.3607616503265 M119.98932016281901,539.3607616503265 L104.13840468063819,524.7827752802777 M104.13840468063819,524.7827752802777 L90.56554143528388,509.4690692121927 M90.56554143528388,509.4690692121927 L79.37090605119874,493.5386987630309 M79.37090605119874,493.5386987630309 L70.63584520928765,477.11505439357643 M70.63584520928765,477.11505439357643 L64.4224381823766,460.3248585101969 M64.4224381823766,460.3248585101969 L60.77311817774819,443.2971372637489 M60.77311817774819,443.2971372637489 L59.71051259554747,426.1622436656469 M59.71051259554747,426.1622436656469 L61.23737840547034,409.050800595879 M61.23737840547034,409.050800595879 L65.33685367900057,392.09271855048723 M65.33685367900057,392.09271855048723 L71.97263403250469,375.41623488292566 M71.97263403250469,375.41623488292566 L81.08945387361837,359.1469212988082 M81.08945387361837,359.1469212988082 L92.61363488299793,343.4068116657123 M92.61363488299793,343.4068116657123 L106.45381710703549,328.3135161919082 M106.45381710703549,328.3135161919082 L122.50170201580431,313.9793937352533 M122.50170201580431,313.9793937352533 L140.63299128535493,300.5107558371515 M140.63299128535493,300.5107558371515 L160.7083936414338,288.0071703197112 M160.7083936414338,288.0071703197112 L182.57473503913508,276.5607770310438 M182.57473503913508,276.5607770310438 L206.06610628794974,266.25567012690067 M206.06610628794974,266.25567012690067 L231.00512080811492,257.16736420217586 M231.00512080811492,257.16736420217586 L257.2042471310745,249.36229886540934 M257.2042471310745,249.36229886540934 L284.4671173602035,242.8974150814876 M284.4671173602035,242.8974150814876 L312.589960364031,237.8197792453107 M312.589960364031,237.8197792453107 L341.3630399032917,234.16632267435307 M341.3630399032917,234.16632267435307 L370.5721436348868,231.96358706089214 M370.5721436348868,231.96358706089214 L399.99999999999994,231.2275679662886 M399.99999999999994,231.2275679662886 L429.4278563651131,231.96358706089214 M429.4278563651131,231.96358706089214 L458.6369600967082,234.16632267435307 M458.6369600967082,234.16632267435307 L487.41003963596893,237.8197792453107 M487.41003963596893,237.8197792453107 L515.5328826397964,242.8974150814876 M515.5328826397964,242.8974150814876 L542.7957528689253,249.36229886540934 M542.7957528689253,249.36229886540934 L568.9948791918849,257.16736420217586 M568.9948791918849,257.16736420217586 L593.9338937120502,266.25567012690067 M593.9338937120502,266.25567012690067 L617.4252649608649,276.5607770310439 M617.4252649608649,276.5607770310439 L639.2916063585657,288.007170319711 M157.76408976006488,510.0752244562992 L137.7070590739038,497.31766996331464 M137.7070590739038,497.31766996331464 L119.67643956184003,483.604282186271 M119.67643956184003,483.604282186271 L103.8080045290726,469.04241046459504 M103.8080045290726,469.04241046459504 L90.22019496259378,453.7456526564296 M90.22019496259378,453.7456526564296 L79.01329319037995,437.8329350691862 M79.01329319037995,437.8329350691862 L70.26873061406371,421.42751378231196 M70.26873061406371,421.42751378231196 L64.04864893935496,404.6559724730889 M64.04864893935496,404.6559724730889 L60.39552130477671,387.6471952876965 M60.39552130477671,387.6471952876965 L59.331992587311106,370.5313909946471 M59.331992587311106,370.5313909946471 L60.86081494441265,353.4390371428446 M60.86081494441265,353.4390371428446 L64.96509986596135,336.4998989001808 M64.96509986596135,336.4998989001808 L71.60849504985657,319.8420693858867 M71.60849504985657,319.8420693858867 L80.73566641007938,303.59097831495785 M80.73566641007938,303.59097831495785 L92.27284737624012,287.8685208447459 M92.27284737624012,287.8685208447459 L106.1285709844559,272.7921728250825 M106.1285709844559,272.7921728250825 L122.19441391835767,258.47416413031976 M122.19441391835767,258.47416413031976 L140.3459364592876,245.02068369468745 M140.3459364592876,245.02068369468745 L160.44369053705486,232.53118400934088 M160.44369053705486,232.53118400934088 L182.33433119384523,221.09769776062254 M182.33433119384523,221.09769776062254 L205.85176549605833,210.8042209328765 M205.85176549605833,210.8042209328765 L230.81841166035684,201.72617966590224 M230.81841166035684,201.72617966590224 L257.0465329691178,193.92993550766772 M257.0465329691178,193.92993550766772 L284.3395475841498,187.47236234639303 M284.3395475841498,187.47236234639303 L312.4934631985746,182.40047100867164 M312.4934631985746,182.40047100867164 L341.2983165994571,178.75114913208967 M341.2983165994571,178.75114913208967 L370.5396641403441,176.5509069744549 M370.5396641403441,176.5509069744549 L399.99999999999994,175.81572113591045 M399.99999999999994,175.81572113591045 L429.4603358596558,176.5509069744549 M429.4603358596558,176.5509069744549 L458.7016834005427,178.75114913208967 M458.7016834005427,178.75114913208967 L487.5065368014253,182.40047100867164 M487.5065368014253,182.40047100867164 L515.66045241585,187.47236234639303 M515.66045241585,187.47236234639303 L542.953467030882,193.92993550766772 M542.953467030882,193.92993550766772 L569.181588339643,201.72617966590224 M569.181588339643,201.72617966590224 L594.1482345039416,210.80422093287658 M594.1482345039416,210.80422093287658 L617.6656688061546,221.09769776062262 M617.6656688061546,221.09769776062262 L639.5563094629447,232.5311840093407" stroke="black"  stroke-width="4"  fill="red"/></svg>