<svg viewBox="0 0 800 800" xmlns="http://www.w3.org/2000/svg"><path d="M681.4222204868786,569.3604081923831 L681.2630539204115,585.4303281378537 M681.4222204868786,569.3604081923831 L673.5481599867928,575.1091044482323 M673.5481599867928,575.1091044482323 L664.9817514614351,580.5193762176141 M664.9817514614351,580.5193762176141 L655.765775619809,585.5633517063284 M655.765775619809,585.5633517063284 L645.9464325196387,590.2149748308633 M645.9464325196387,590.2149748308633 L645.8069921168967,606.2963490963957 M398.351708220292,588.5855844465217 L409.1142091345812,595.6226207605528 M409.1142091345812,595.6226207605528 L420.9316779406018,602.0732827265507 M420.9316779406018,602.0732827265507 L433.70798270338616,607.8835576576859 M433.70798270338616,607.8835576576859 L447.33868475787335,613.0046379641104 M447.33868475787335,613.0046379641104 L461.71194120221855,617.3934468261242 M461.71194120221855,617.3934468261242 L476.7094065339679,621.0129863656791 M476.7094065339679,621.0129863656791 L492.2072921369798,623.8326738429848 M492.2072921369798,623.8326738429848 L508.0773682462147,625.8286765567035 M508.0773682462147,625.8286765567035 L524.1881716093413,626.9840879794308 M524.1881716093413,626.9840879794308 L540.4061176801657,627.2891430734032 M540.4061176801657,627.2891430734032 L556.5966399520441,626.7412349745986 M556.5966399520441,626.7412349745986 L572.6254511254789,625.3450253984944 M572.6254511254789,625.3450253984944 L588.3596304574179,623.1123182465753 M588.3596304574179,623.1123182465753 L603.668921091017,620.0620208194824 M603.668921091017,620.0620208194824 L618.4267577547829,616.2199206603298 M618.4267577547829,616.2199206603298 L632.5113941304636,611.6184365731124 M632.5113941304636,611.6184365731124 L645.8069921168967,606.2963490963957 M398.3518472219686,574.9258302107822 L398.351708220292,588.5855844465217 M398.3518472219686,574.9258302107822 L388.5688837302436,567.2280013944794 M388.5688837302436,567.2280013944794 L380.0501974882634,559.0505806280497 M380.0501974882634,559.0505806280497 L372.8659969950942,550.463826765601 M372.8659969950942,550.463826765601 L367.0748146046875,541.5412892181494 M367.0748146046875,541.5412892181494 L362.72310808598866,532.3591028043843 M362.72310808598866,532.3591028043843 L359.84487908280363,522.9953300758187 M359.84487908280363,522.9953300758187 L358.46156028617804,513.5292661665089 M358.46156028617804,513.5292661665089 L358.5818270991985,504.04076902304655 M358.5818270991985,504.04076902304655 L360.20172014869064,494.6095649839548 M360.20172014869064,494.6095649839548 L363.3047182777326,485.314594564106 M363.3047182777326,485.314594564106 L367.861991412743,476.23334911994186 M367.861991412743,476.23334911994186 L373.83274395037574,467.44124686024816 M373.83274395037574,467.44124686024816 L381.1646276247879,459.0110309988529 M381.1646276247879,459.0110309988529 L389.79424946293216,451.012202364271 M389.79424946293216,451.012202364271 L399.6477757532693,443.5104732628468 M399.6477757532693,443.5104732628468 L410.6415820225416,436.56727256883823 M410.6415820225416,436.56727256883823 L422.6829830511649,430.2392807172991 M422.6829830511649,430.2392807172991 L435.67102342590863,424.57801201977804 M435.67102342590863,424.57801201977804 L449.4973112625841,419.62943502511683 M449.4973112625841,419.62943502511683 L464.04690750720135,415.4336384087759 M464.04690750720135,415.4336384087759 L479.19923784460036,412.02455069371854 M479.19923784460036,412.02455069371854 L494.8290620222619,409.4296912203859 M494.8290620222619,409.4296912203859 L510.80744787939796,407.66997777782194 M510.80744787939796,407.66997777782194 L527.0027729925016,406.7595870150623 M527.0027729925016,406.7595870150623 L543.2817336087384,406.70584974959144 M543.2817336087384,406.70584974959144 L559.5103923697217,407.50919016376577 M559.5103923697217,407.50919016376577 L575.555185148929,409.16315687028043 M575.555185148929,409.16315687028043 L591.2839739579852,411.6544126183977 M591.2839739579852,411.6544126183977 L606.5670416266578,414.96288588032587 M606.5670416266578,414.96288588032587 L621.2781164657237,419.0618625750522 M621.2781164657237,419.0618625750522 L635.2953275332413,423.9182129495366 M635.2953275332413,423.9182129495366 L648.5022393904034,429.4926097715963 M648.5022393904034,429.4926097715963 L648.3838424449245,443.0837207101804 M662.1326861216103,450.1617573325231 L657.6884203975808,447.71205610239264 M657.6884203975808,447.71205610239264 L653.1036612403259,445.3518081811584 M653.1036612403259,445.3518081811584 L648.3838424449245,443.0837207101804 M662.1326861216103,450.1617573325231 L664.8044407298243,159.50347581270137 M664.8044407298243,159.50347581270137 L676.2801049146368,166.5385089215179 M676.2801049146368,166.5385089215179 L686.5618537063565,174.15028708145599 M686.5618537063565,174.15028708145599 L695.5585181481009,182.27366137015258 M695.5585181481009,182.27366137015258 L703.1896442835937,190.83888352267763 M703.1896442835937,190.83888352267763 L709.386226454561,199.77212590130264 M709.386226454561,199.77212590130264 L714.0914771644918,208.99612439454103 M714.0914771644918,208.99612439454103 L717.2613170260602,218.4307713565878 M717.2613170260602,218.4307713565878 L718.8648620006588,227.99380572681622 M718.8648620006588,227.99380572681622 L718.8848970333925,237.60152042268237 M718.8848970333925,237.60152042268237 L717.3179771137502,247.16945762658273 M717.3179771137502,247.16945762658273 L714.174720454207,256.61318385664435 M714.174720454207,256.61318385664435 L709.4797122903122,265.84900804785764 M709.4797122903122,265.84900804785764 L703.2715347124757,274.7947869124745 M703.2715347124757,274.7947869124745 L695.6023253544272,283.37061365620093 M695.6023253544272,283.37061365620093 L686.5375906520095,291.49963597487744 M686.5375906520095,291.49963597487744 L676.1556087125136,299.1087385059359 M676.1556087125136,299.1087385059359 L664.5468068673539,306.1292596625596 M664.5468068673539,306.1292596625596 L651.8129988640911,312.49765641077124 M651.8129988640911,312.49765641077124 L638.0664795022382,318.1561143102823 M638.0664795022382,318.1561143102823 L623.4291061104449,323.0531740116253 M623.4291061104449,323.0531740116253 L608.0310517350156,327.1441553131628 M608.0310517350156,327.1441553131628 L592.0097253770368,330.3916877905432 M592.0097253770368,330.3916877905432 L575.5084560407643,332.7660570927452 M575.5084560407643,332.7660570927452 L558.6751116130279,334.2455164217994 M558.6751116130279,334.2455164217994 L541.6607597689818,334.8165018925068 M541.6607597689818,334.8165018925068 L524.6181873051873,334.4737841657719 M524.6181873051873,334.4737841657719 L507.70039579097164,333.2204906019582 M507.70039579097164,333.2204906019582 L491.0592421701915,331.0681271300113 M491.0592421701915,331.0681271300113 L474.84393123844694,328.0363995330769 M474.84393123844694,328.0363995330769 L459.19960474535185,324.15306941045014 M459.19960474535185,324.15306941045014 L444.265981888478,319.45362722879395 M444.265981888478,319.45362722879395 L430.17602980875694,313.98094782424187 M430.17602980875694,313.98094782424187 L417.05477507501564,307.7848566747104 M417.05477507501564,307.7848566747104 L405.01810819805877,300.9216220045922 M405.01810819805877,300.9216220045922 L394.1718094064603,293.4534186729238 M394.1718094064603,293.4534186729238 L384.61055941730655,285.4476809058168 M384.61055941730655,285.4476809058168 L376.41717205872857,276.97648208788763 M376.41717205872857,276.97648208788763 L369.66189669145604,268.11580956517435 M369.66189669145604,268.11580956517435 L364.40187429279126,258.94487215991455 M364.40187429279126,258.94487215991455 L360.6806959041648,249.54531738771192 M360.6806959041648,249.54531738771192 L358.52812909768613,240.00053467066573 M358.52812909768613,240.00053467066573 L357.9599494078372,230.39483552689904 M357.9599494078372,230.39483552689904 L358.9779410068482,220.81274071414782 M358.9779410068482,220.81274071414782 L361.56994934840407,211.3382132698427 M361.56994934840407,211.3382132698427 L365.7101276208763,202.05395165433686 M365.7101276208763,202.05395165433686 L371.35927828494425,193.04065289294482 M371.35927828494425,193.04065289294482 L378.46526728793873,184.37636220666081 M378.46526728793873,184.37636220666081 L386.96359366674665,176.1358173667195 M386.96359366674665,176.1358173667195 L396.7780090248804,168.38984493547127 M396.7780090248804,168.38984493547127 L407.8212539619849,161.20478906018337 M407.8212539619849,161.20478906018337 L419.99584442179224,154.64199175920578 M419.99584442179224,154.64199175920578 L433.1949565843178,148.75731778531787 M433.1949565843178,148.75731778531787 L447.3033464662131,143.60072239145865 M447.3033464662131,143.60072239145865 L462.1983400079246,139.21587834999707 M462.1983400079246,139.21587834999707 L477.75086759887824,135.63984335539533 M477.75086759887824,135.63984335539533 L493.8265392294464,132.90278220225798 M493.8265392294464,132.90278220225798 L510.2867188054846,131.02776208289174 M510.2867188054846,131.02776208289174 L526.9896872701129,130.03055988274463 M526.9896872701129,130.03055988274463 L543.7917688753673,129.91956843640696 M543.7917688753673,129.91956843640696 L560.5484963165347,130.69571224591215 M560.5484963165347,130.69571224591215 L577.1157366397309,132.35247176315664 M577.1157366397309,132.35247176315664 L593.3509039771994,134.87589928388593 M593.3509039771994,134.87589928388593 L609.114076460162,138.2447482861694 M609.114076460162,138.2447482861694 L624.2691136102147,142.43060172440926 M624.2691136102147,142.43060172440926 L638.6848170516515,147.39809961634256 M638.6848170516515,147.39809961634256 L652.2359829790245,153.10519276295392 M652.2359829790245,153.10519276295392 L664.8044407298243,159.50347581270137 M681.2630539204115,585.4303281378537 L690.1482991189887,577.7327076077302 M690.1482991189887,577.7327076077302 L697.7993398172619,569.6057037509719 M697.7993398172619,569.6057037509719 L704.1566001676639,561.115445992024 M704.1566001676639,561.115445992024 L709.1713024223174,552.3308405431669 M709.1713024223174,552.3308405431669 L712.8056555520699,543.322892703894 M712.8056555520699,543.322892703894 L715.0331087418077,534.1641429211378 M715.0331087418077,534.1641429211378 L715.8385247865423,524.9280792680375 M715.8385247865423,524.9280792680375 L715.2182425966819,515.6885473492428 M715.2182425966819,515.6885473492428 L713.1799230545134,506.5191229519385 M713.1799230545134,506.5191229519385 L709.7424277258032,497.4925275847274 M709.7424277258032,497.4925275847274 L704.9356911589244,488.68008639976114 M704.9356911589244,488.68008639976114 L698.8002879823041,480.1512063069599 M698.8002879823041,480.1512063069599 L691.3870137291449,471.9727635522015 M691.3870137291449,471.9727635522015 L682.7565778136718,464.2086899041792 M682.7565778136718,464.2086899041792 L672.9789295917783,456.91949282780325 M672.9789295917783,456.91949282780325 L662.1326861216103,450.1617573325231 M681.2630539204115,585.4303281378537 L681.1991520669977,586.0191057962641 M681.1991520669977,586.0191057962641 L681.0292571318587,586.6421659718967 M681.0292571318587,586.6421659718967 L680.7771168894722,587.2699339748617 M680.7771168894722,587.2699339748617 L680.352437766086,588.0876875735913 M680.352437766086,588.0876875735913 L679.5993498050077,589.2502567234344 M679.5993498050077,589.2502567234344 L678.3315684519109,590.8545014612209 M678.3315684519109,590.8545014612209 L675.0083218671041,594.2143738041262 M675.0083218671041,594.2143738041262 L670.7314562869972,597.7223366840371 M670.7314562869972,597.7223366840371 L665.8030156461842,601.1284727152979 M665.8030156461842,601.1284727152979 L660.6539284072242,604.1328925059988 M660.6539284072242,604.1328925059988 L653.7173581300892,607.2311689828703 M653.7173581300892,607.2311689828703 L649.8263226617596,608.2217935497335 M649.8263226617596,608.2217935497335 L647.7930002531785,608.2595008708182 M647.7930002531785,608.2595008708182 L646.850242109738,607.9953028125514 M646.850242109738,607.9953028125514 L646.2292962187677,607.5432094401453 M646.2292962187677,607.5432094401453 L646.0045621748912,607.214091958517 M646.0045621748912,607.214091958517 L645.856286451105,606.796887133969 M645.856286451105,606.796887133969 L645.8069921168967,606.2963490963957 M681.4222204868786,569.3604081923831 L645.9464325196387,590.2149748308633 M386.89446343307526,569.5002649831437 L392.7910722887911,577.9566097919744 M392.7910722887911,577.9566097919744 L400.09825057059805,586.0436740412079 M400.09825057059805,586.0436740412079 L408.74673579887553,593.6816043690119 M408.74673579887553,593.6816043690119 L418.6538220057633,600.7947595771858 M418.6538220057633,600.7947595771858 L429.72398259567467,607.3124544900883 M429.72398259567467,607.3124544900883 L441.8498613462589,613.1697719331847 M441.8498613462589,613.1697719331847 L454.91330294756517,618.3081977740492 M454.91330294756517,618.3081977740492 L468.78644474771505,622.6762988492843 M468.78644474771505,622.6762988492843 L483.3330709515244,626.2302604239842 M483.3330709515244,626.2302604239842 L498.4100251757527,628.9343979248624 M498.4100251757527,628.9343979248624 L513.8685598682274,630.7614844912368 M513.8685598682274,630.7614844912368 L529.5560147058839,631.693146958247 M529.5560147058839,631.693146958247 L545.3172889720255,631.7200015183303 M545.3172889720255,631.7200015183303 L560.9965036973499,630.8417548219816 M560.9965036973499,630.8417548219816 L576.4386829392656,629.0672791993009 M576.4386829392656,629.0672791993009 L591.4912908934814,626.4144284480806 M591.4912908934814,626.4144284480806 L606.0058407467387,622.9098906548568 M606.0058407467387,622.9098906548568 L619.8394501876137,618.5888739212545 M619.8394501876137,618.5888739212545 L632.8563010465768,613.4947242496972 M632.8563010465768,613.4947242496972 L644.9289952978081,607.6784300967723 M644.9289952978081,607.6784300967723 L655.9398761332728,601.1980996272433 M655.9398761332728,601.1980996272433 L665.782157063527,594.1183044092953 M665.782157063527,594.1183044092953 L674.360950249139,586.5093892915534 M674.360950249139,586.5093892915534 L681.5942081567825,578.4467436213439 M681.5942081567825,578.4467436213439 L687.4134140559466,570.0099845461697 M687.4134140559466,570.0099845461697 L691.7642130926358,561.2821445141324 M691.7642130926358,561.2821445141324 L694.6068444191832,552.3488246141718 M694.6068444191832,552.3488246141718 L695.9164607602652,543.2973178565067 M695.9164607602652,543.2973178565067 L695.6831751017337,534.215726548324 M695.6831751017337,534.215726548324 L693.9121913930255,525.1921424088172 M693.9121913930255,525.1921424088172 L690.6235185607995,516.3137637709746 M690.6235185607995,516.3137637709746 L685.8516732342863,507.6660391231406 M685.8516732342863,507.6660391231406 L679.6453621702142,499.3319308980512 M679.6453621702142,499.3319308980512 L672.066758709109,491.391068345765 M672.066758709109,491.391068345765 L663.1909393389014,483.9190906872962 M663.1909393389014,483.9190906872962 L653.1050456809693,476.98695151769346 M653.1050456809693,476.98695151769346 L641.9074405735782,470.66024931742004 M641.9074405735782,470.66024931742004 L629.706661451778,464.9986967870733 M629.706661451778,464.9986967870733 L616.6204756327486,460.0556098343123 M616.6204756327486,460.0556098343123 L602.7746573766111,455.8774011334072 M602.7746573766111,455.8774011334072 L588.3018997176541,452.5032636863899 M648.3838424449245,443.0837207101804 L648.1893037903328,444.34115149701705 M648.1893037903328,444.34115149701705 L647.6449272076662,445.4911346928862 M647.6449272076662,445.4911346928862 L646.8146882219406,446.4956739730905 M646.8146882219406,446.4956739730905 L645.3720793449104,447.6248128291089 M645.3720793449104,447.6248128291089 L643.3771168004736,448.67308034595493 M643.3771168004736,448.67308034595493 L640.1464858341294,449.8079697715192 M640.1464858341294,449.8079697715192 L636.1858793932313,450.7243066504886 M636.1858793932313,450.7243066504886 L631.580194121212,451.4316045000581 M631.580194121212,451.4316045000581 L626.4076258694837,451.95135003707384 M626.4076258694837,451.95135003707384 L615.021700495682,452.519367790996 M615.021700495682,452.519367790996 L608.4393198895209,452.63432296775756 M608.4393198895209,452.63432296775756 L601.7714774684664,452.65381369943924 M601.7714774684664,452.65381369943924 L588.3018997176541,452.5032636863899 M398.351708220292,588.5855844465217 L398.2856767005928,589.7798528252226 M398.2856767005928,589.7798528252226 L398.09464752682817,590.7326442319875 M398.09464752682817,590.7326442319875 L397.804378880202,591.4281888625965 M397.804378880202,591.4281888625965 L397.30791698267836,592.0095557615826 M397.30791698267836,592.0095557615826 L396.6402117158142,592.2841668219738 M396.6402117158142,592.2841668219738 L395.60716677705943,592.1325645946575 M395.60716677705943,592.1325645946575 L394.42246818811714,591.419654703834 M394.42246818811714,591.419654703834 L393.157146915222,590.1639087600927 M393.157146915222,590.1639087600927 L391.8781087475321,588.3943974199643 M391.8781087475321,588.3943974199643 L389.5808003268976,583.6194925658799 M389.5808003268976,583.6194925658799 L388.5710242182703,580.4607032724674 M388.5710242182703,580.4607032724674 L387.78165953170304,577.029104307759 M387.78165953170304,577.029104307759 L386.89446343307526,569.5002649831437 M594.3645993396838,423.1017755995864 L608.1434467064771,423.86911654119615 M608.1434467064771,423.86911654119615 L621.8037383315126,425.1946922248941 M621.8037383315126,425.1946922248941 L635.2786644111235,427.072183071464 M635.2786644111235,427.072183071464 L648.5022393904034,429.4926097715963 M594.3645993396838,423.1017755995864 L594.271837561242,436.68983803844145 M387.1587656674591,556.8975473000063 L386.8744805547966,546.7118032797762 M386.8744805547966,546.7118032797762 L388.1518364377012,536.5656923468373 M388.1518364377012,536.5656923468373 L390.97742299783715,526.5394459469758 M390.97742299783715,526.5394459469758 L395.32571972005815,516.7119960617204 M395.32571972005815,516.7119960617204 L401.15934058106944,507.1603954856281 M401.15934058106944,507.1603954856281 L408.42945411460244,497.95922936646014 M408.42945411460244,497.95922936646014 L417.07622928068764,489.18006439965876 M417.07622928068764,489.18006439965876 L427.0293980921464,480.8909285958955 M427.0293980921464,480.8909285958955 L438.2088430392573,473.15582236500387 M438.2088430392573,473.15582236500387 L450.5252748599238,466.03426259286255 M450.5252748599238,466.03426259286255 L463.8809570785679,459.58087569511497 M463.8809570785679,459.58087569511497 L478.17048466508624,453.8450204565636 M478.17048466508624,453.8450204565636 L493.28158929506526,448.8704542878562 M493.28158929506526,448.8704542878562 L509.09600110331405,444.6950359947886 M509.09600110331405,444.6950359947886 L525.4903369599472,441.3504871800047 M525.4903369599472,441.3504871800047 L542.3370106012972,438.8621715102246 M542.3370106012972,438.8621715102246 L559.5051631111327,437.24894139901653 M559.5051631111327,437.24894139901653 L576.8616257040841,436.52299673230317 M576.8616257040841,436.52299673230317 L594.271837561242,436.68983803844145 M387.1535682686331,543.2526234391106 L387.1587656674591,556.8975473000063 M398.3518472219686,574.9258302107822 L394.1049030304131,567.1875244920311 M394.1049030304131,567.1875244920311 L390.81369760419045,559.3025595705933 M390.81369760419045,559.3025595705933 L388.4932428036124,551.3108285984601 M388.4932428036124,551.3108285984601 L387.1535682686331,543.2526234391106 M386.89446343307526,569.5002649831437 L387.1016741510436,559.6739135716347 M387.1016741510436,559.6739135716347 L388.7583902984504,549.9070620590169 M388.7583902984504,549.9070620590169 L391.84951771843083,540.2714625198071 M391.84951771843083,540.2714625198071 L396.3494620284667,530.8376281506276 M396.3494620284667,530.8376281506276 L402.22249431581855,521.6743100864285 M402.22249431581855,521.6743100864285 L409.4230361315606,512.8480320366261 M409.4230361315606,512.8480320366261 L417.8960679571102,504.42263544625854 M417.8960679571102,504.42263544625854 L427.5775937167306,496.45882862288335 M427.5775937167306,496.45882862288335 L438.3951627867813,489.0138098148948 M438.3951627867813,489.0138098148948 L450.26840963735395,482.1408684331427 M450.26840963735395,482.1408684331427 L463.1096763454366,475.8890528628947 M463.1096763454366,475.8890528628947 L476.8246593565868,470.30285710282965 M476.8246593565868,470.30285710282965 L491.3130687670564,465.42193130199394 M491.3130687670564,465.42193130199394 L506.469380086565,461.2808478661997 M506.469380086565,461.2808478661997 L522.1835238623365,457.9088833313446 M522.1835238623365,457.9088833313446 L538.341677080248,455.32983653312596 M538.341677080248,455.32983653312596 L554.8270351035168,453.56187977157435 M554.8270351035168,453.56187977157435 L571.5205762858299,452.617479003596 M571.5205762858299,452.617479003596 L588.3018997176541,452.5032636863899 M387.1535682686331,543.2526234391106 L382.2274177181525,534.7071708546302 M382.2274177181525,534.7071708546302 L378.7472105697193,525.9365321173663 M378.7472105697193,525.9365321173663 L376.74274736571675,517.0228340346493 M376.74274736571675,517.0228340346493 L376.2299304139403,508.04923089660997 M376.2299304139403,508.04923089660997 L377.2107419108549,499.09912420747713 M377.2107419108549,499.09912420747713 L379.6733183508192,490.2553899609837 M379.6733183508192,490.2553899609837 L383.5921613686592,481.5996089523197 M383.5921613686592,481.5996089523197 L388.9284773389314,473.2113440516355 M388.9284773389314,473.2113440516355 L395.63061730596854,465.1674220226678 M395.63061730596854,465.1674220226678 L403.63463947030044,457.54126125992826 M403.63463947030044,457.54126125992826 L412.8649674568147,450.40223847458174 M412.8649674568147,450.40223847458174 L423.2351262957183,443.81509775888867 M423.2351262957183,443.81509775888867 L434.6485804579593,437.8394025355861 M434.6485804579593,437.8394025355861 L446.99964102917295,432.5290459315899 M446.99964102917295,432.5290459315899 L460.1744272197806,427.9318068816615 M460.1744272197806,427.9318068816615 L474.05189997426766,424.0889575891855 M474.05189997426766,424.0889575891855 L488.50493757196665,421.03493792108077 M488.50493757196665,421.03493792108077 L503.40145022257656,418.7970791293569 M503.40145022257656,418.7970791293569 L518.6055268250878,417.39538352910915 M518.6055268250878,417.39538352910915 L533.9786262251562,416.84237165202217 M533.9786262251562,416.84237165202217 L549.3807432288421,417.142980400217 M549.3807432288421,417.142980400217 L564.6716251595176,418.29452501107846 M564.6716251595176,418.29452501107846 L579.7119672699387,420.2867260157694 M579.7119672699387,420.2867260157694 L594.3645993396838,423.1017755995864 M652.3746730128629,150.42265296622287 L663.166311330545,157.0666279058634 M663.166311330545,157.0666279058634 L672.7731360171912,164.27594953489955 M672.7731360171912,164.27594953489955 L681.1017821824868,171.98281974777132 M681.1017821824868,171.98281974777132 L688.0706775041206,180.11451222363803 M688.0706775041206,180.11451222363803 L693.6108898284963,188.59403691970505 M693.6108898284963,188.59403691970505 L697.6667750937165,197.34083188598754 M697.6667750937165,197.34083188598754 L700.1966302000809,206.27146361651995 M700.1966302000809,206.27146361651995 L701.1732528662728,215.30044116426296 M701.1732528662728,215.30044116426296 L700.5842774723416,224.3410095008296 M700.5842774723416,224.3410095008296 L698.4323674054717,233.30594718610797 M698.4323674054717,233.30594718610797 L694.735367411206,242.1084541204941 M694.735367411206,242.1084541204941 L689.5261813355743,250.66296499105601 M689.5261813355743,250.66296499105601 L682.852608472954,258.88602148084107 M682.852608472954,258.88602148084107 L674.7769678371556,266.69712429645506 M674.7769678371556,266.69712429645506 L665.3755940946781,274.0195614157583 M665.3755940946781,274.0195614157583 L654.7380466366884,280.7811502234352 M654.7380466366884,280.7811502234352 L642.9664874019898,286.9150974976084 M642.9664874019898,286.9150974976084 L630.1744806669576,292.3605848332862 M630.1744806669576,292.3605848332862 L616.486110998027,297.0635513635494 M616.486110998027,297.0635513635494 L602.0345759233759,300.9771640950696 M602.0345759233759,300.9771640950696 L586.9609463282521,304.06239305966835 M586.9609463282521,304.06239305966835 L571.4127291495936,306.2884287567275 M571.4127291495936,306.2884287567275 L555.5423426345926,307.63302663861305 M555.5423426345926,307.63302663861305 L539.5055108756437,308.08272561466055 M539.5055108756437,308.08272561466055 L523.4597216734624,307.6330327962315 M523.4597216734624,307.6330327962315 L507.56251463707974,306.2884379914042 M507.56251463707974,306.2884379914042 L491.9698984084368,304.06238690514954 M491.9698984084368,304.06238690514954 L476.8347512481878,300.9771517913874 M476.8347512481878,300.9771517913874 L462.305167564759,297.0635513635493 M462.305167564759,297.0635513635493 L448.522999179836,292.3605925137434 M448.522999179836,292.3605925137434 L435.62241260496,286.91509135796434 M435.62241260496,286.91509135796434 L423.7285033274185,280.78115635776237 M423.7285033274185,280.78115635776237 L412.9561318888969,274.0195552872889 M412.9561318888969,274.0195552872889 L403.4087035142471,266.69712888805157 M403.4087035142471,266.69712888805157 L395.1773005041933,258.88602148084107 M395.1773005041933,258.88602148084107 L388.33974703175716,250.66295888280044 M388.33974703175716,250.66295888280044 L382.959948690278,242.1084541204941 M382.959948690278,242.1084541204941 L379.0873906856612,233.30595327936362 M379.0873906856612,233.30595327936362 L376.7566993897269,224.3410125435873 M376.7566993897269,224.3410125435873 L375.98742910336983,215.3004442031203 M375.98742910336983,215.3004442031203 L376.7839987541788,206.2714605815554 M376.7839987541788,206.2714605815554 L379.1357567620685,197.34083188598746 M379.1357567620685,197.34083188598746 L383.01718707568097,188.59404448808084 M383.01718707568097,188.59404448808084 L388.38828798857423,180.11451675918994 M388.38828798857423,180.11451675918994 L395.19503005161755,171.9828212578732 M395.19503005161755,171.9828212578732 L403.3699817613022,164.27594953489955 M403.3699817613022,164.27594953489955 L412.8330211882387,157.06662489206923 M412.8330211882387,157.06662489206923 L423.4921675771937,150.4226544716933 M423.4921675771937,150.4226544716933 L435.2444823987047,144.4063419238832 M435.2444823987047,144.4063419238832 L447.97708649248403,139.0739545137082 M447.97708649248403,139.0739545137082 L461.56822885070585,134.4752355117662 M461.56822885070585,134.4752355117662 L475.8884185676823,130.6529948278236 M475.8884185676823,130.6529948278236 L490.8016269609779,127.64274782210998 M490.8016269609779,127.64274782210998 L506.1665200455453,125.47242662328762 M506.1665200455453,125.47242662328762 L521.8377354865778,124.1621405583669 M521.8377354865778,124.1621405583669 L537.6671953244207,123.72402726756803 M537.6671953244207,123.72402726756803 L553.5053923994737,124.1621405583669 M553.5053923994737,124.1621405583669 L569.2027439971306,125.47242362304792 M569.2027439971306,125.47242362304792 L584.6109168731992,127.64274632152518 M584.6109168731992,127.64274632152518 L599.5841529506995,130.65299632905374 M599.5841529506995,130.65299632905374 L613.9805744079594,134.4752340097167 M613.9805744079594,134.4752340097167 L627.6634257389447,139.0739515076371 M627.6634257389447,139.0739515076371 L640.5023677192813,144.40634493224218 M640.5023677192813,144.40634493224218 L652.3746730128629,150.42265296622287 M664.8044407298243,159.50347581270137 L664.4227462964927,155.75953287849603 M664.4227462964927,155.75953287849603 L663.2272387357965,152.7185004902859 M663.2272387357965,152.7185004902859 L661.2898090501441,150.56461072004882 M661.2898090501441,150.56461072004882 L658.7272688122937,149.42874823023925 M658.7272688122937,149.42874823023925 L655.6943943667557,149.3802547054009 M655.6943943667557,149.3802547054009 L652.3746730128629,150.42265296622287 M649.6851285751645,457.41302935510345 L652.3746730128629,150.42265296622287 M649.6851285751645,457.41302935510345 L660.4224713113761,464.17303184975253 M660.4224713113761,464.17303184975253 L669.972489379293,471.51110596351316 M669.972489379293,471.51110596351316 L678.2412503543105,479.3573665922471 M678.2412503543105,479.3573665922471 L685.146819558746,487.6368690240701 M685.146819558746,487.6368690240701 L690.6200148691568,496.2702428765416 M690.6200148691568,496.2702428765416 L694.6051988210093,505.17443933772705 M694.6051988210093,505.17443933772705 L697.0608962718873,514.2634814414317 M697.0608962718873,514.2634814414317 L697.9603673208355,523.4493022722686 M697.9603673208355,523.4493022722686 L697.2918575733935,532.6425471832422 M697.2918575733935,532.6425471832422 L695.0588712422177,541.7534083596142 M695.0588712422177,541.7534083596142 L691.2803422462531,550.6926126089636 M691.2803422462531,550.6926126089636 L685.990410505148,559.3721820654803 M685.990410505148,559.3721820654803 L679.2383164968005,567.7064101290853 M679.2383164968005,567.7064101290853 L671.0879636321356,575.6127140763774 M671.0879636321356,575.6127140763774 L661.6173912238837,583.0124910579659 M661.6173912238837,583.0124910579659 L650.9180210520125,589.831928009568 M650.9180210520125,589.831928009568 L639.0938740497137,596.0028203843207 M639.0938740497137,596.0028203843207 L626.2605031403408,601.4632689708312 M626.2605031403408,601.4632689708312 L612.5438926317255,606.1583791191492 M612.5438926317255,606.1583791191492 L598.0792030647214,610.0408549168759 M598.0792030647214,610.0408549168759 L583.009406072751,613.0715348152405 M583.009406072751,613.0715348152405 L567.4837238102966,615.2197669252907 M567.4837238102966,615.2197669252907 L551.6562049246581,616.4638297301368 M551.6562049246581,616.4638297301368 L535.6840166719286,616.7911191322838 M535.6840166719286,616.7911191322838 L519.7259046963809,616.1983396662096 M519.7259046963809,616.1983396662096 L503.9404211579492,614.6914857469355 M503.9404211579492,614.6914857469355 L488.48428178699413,612.28580565401 M488.48428178699413,612.28580565401 L473.51080341712037,609.0056304508827 M473.51080341712037,609.0056304508827 L459.1681988467072,604.8841032575167 M459.1681988467072,604.8841032575167 L445.5981186060609,599.9627858896318 M445.5981186060609,599.9627858896318 L432.934151154295,594.2912292262203 M432.934151154295,594.2912292262203 L421.30051943534835,587.9264107525138 M421.30051943534835,587.9264107525138 L410.8107848262236,580.9321295556006 M410.8107848262236,580.9321295556006 L401.5667729519848,573.3782754530046 M401.5667729519848,573.3782754530046 L393.65758316162123,565.3401431593447 M393.65758316162123,565.3401431593447 L387.1587656674591,556.8975473000063 M594.271837561242,436.68983803844145 L606.4436610188773,439.7481449586342 M606.4436610188773,439.7481449586342 L618.1483573534139,443.3754497935153 M618.1483573534139,443.3754497935153 L629.3066780076257,447.5477303233589 M629.3066780076257,447.5477303233589 L639.8428636169454,452.23731161756183 M639.8428636169454,452.23731161756183 L649.6851285751645,457.41302935510345" stroke="black"  stroke-width="4"  fill="red"/>
<path d="M149.69942587375624,299.93996921753455 L149.34442888789528,258.6624084129331 M149.69942587375624,299.93996921753455 L99.98391973925573,328.0129377863272 M149.34442888789528,258.6624084129331 L99.55701666928178,286.693728033495 M99.98391973925573,328.0129377863272 L99.55701666928178,286.693728033495 M373.4975679576421,299.93996921753455 L373.4624583656339,258.6624084129331 M373.4975679576421,299.93996921753455 L362.0058423729058,293.9945413366629 M362.0058423729058,293.9945413366629 L349.55543521736865,288.7248878191615 M349.55543521736865,288.7248878191615 L336.2654172191675,284.18019634049045 M336.2654172191675,284.18019634049045 L322.2624530258104,280.402815969782 M322.2624530258104,280.402815969782 L307.6795673340653,277.4278685388698 M307.6795673340653,277.4278685388698 L292.6550264842912,275.2829643047264 M292.6550264842912,275.2829643047264 L277.3310405454844,273.98803130240583 M277.3310405454844,273.98803130240583 L261.8524706392557,273.5550435461478 M261.8524706392557,273.5550435461478 L246.36556510122875,273.98803130240583 M246.36556510122875,273.98803130240583 L231.01664462391412,275.2829672632482 M231.01664462391412,275.2829672632482 L215.95081669254614,277.4278567011952 M215.95081669254614,277.4278567011952 L201.31067966163124,280.402815969782 M201.31067966163124,280.402815969782 L187.23498502683313,284.1802022649763 M187.23498502683313,284.1802022649763 L173.85746492494445,288.7248878191615 M173.85746492494445,288.7248878191615 L161.30560679756383,293.99454281983805 M161.30560679756383,293.99454281983805 L149.69942587375624,299.93996921753455 M373.4624583656339,258.6624084129331 L361.95432864847766,252.72582150764916 M361.95432864847766,252.72582150764916 L349.4861587007167,247.46401002487463 M349.4861587007167,247.46401002487463 L336.17718792979525,242.92608621903355 M336.17718792979525,242.92608621903355 L322.1542596951054,239.15433405373588 M322.1542596951054,239.15433405373588 L307.5505857710018,236.18382124485615 M307.5505857710018,236.18382124485615 L292.5046264694243,234.04211542975722 M292.5046264694243,234.04211542975722 L277.1587910219268,232.74911384244064 M277.1587910219268,232.74911384244064 L261.65814322978133,232.3167719702415 M261.65814322978133,232.3167719702415 L246.14913600373444,232.74911384244064 M246.14913600373444,232.74911384244064 L230.7782948211007,234.0421183838667 M230.7782948211007,234.0421183838667 L215.69093051512186,236.18380942483103 M215.69093051512186,236.18380942483103 L201.0298416833961,239.15433405373588 M201.0298416833961,239.15433405373588 L186.93397521760693,242.9260921346943 M186.93397521760693,242.9260921346943 L173.5372522743073,247.46401002487463 M173.5372522743073,247.46401002487463 L160.96734130791307,252.72582298861792 M160.96734130791307,252.72582298861792 L149.34442888789528,258.6624084129331 M149.69942587375624,299.93996921753455 L149.7732311643674,300.6845148822524 M149.7732311643674,300.6845148822524 L149.97882251037387,301.4697550772324 M149.97882251037387,301.4697550772324 L150.305891310358,302.2563311799969 M150.305891310358,302.2563311799969 L150.7380221067028,303.00480753749 M150.7380221067028,303.00480753749 L151.2535701879456,303.6776776557458 M151.2535701879456,303.6776776557458 L151.8267006752175,304.2412161491593 M151.8267006752175,304.2412161491593 L152.42867150892553,304.66716132398346 M152.42867150892553,304.66716132398346 L102.71856982122739,332.7494906692245 M99.98391973925573,328.0129377863272 L100.05895106039196,328.7583479859587 M100.05895106039196,328.7583479859587 L100.26570095082297,329.5447187094344 M100.26570095082297,329.5447187094344 L100.59380274057247,330.3326346925014 M100.59380274057247,330.3326346925014 L101.02678921007413,331.08259311149067 M101.02678921007413,331.08259311149067 L101.54297277919238,331.75701325592206 M101.54297277919238,331.75701325592206 L102.11648673771458,332.3220920848126 M102.11648673771458,332.3220920848126 L102.71856982122739,332.7494906692245 M149.34442888789528,258.6624084129331 L149.40618033125628,257.99379726795263 M149.40618033125628,257.99379726795263 L149.60053285032083,257.4366143481726 M149.60053285032083,257.4366143481726 L149.91775657714464,257.0188080257126 M149.91775657714464,257.0188080257126 L150.34193808949578,256.7613260472773 M150.34193808949578,256.7613260472773 L150.85183140413292,256.6771121402286 M150.85183140413292,256.6771121402286 L151.42187677422163,256.77040259955027 M151.42187677422163,256.77040259955027 L152.02347172805253,257.0365288822319 M152.02347172805253,257.0365288822319 L102.23040088097457,285.07080131906815 M99.55701666928178,286.693728033495 L99.61753249558251,286.02455559771374 M99.61753249558251,286.02455559771374 L99.81070531988712,285.46714885789436 M99.81070531988712,285.46714885789436 L100.12686445534212,285.04946745734867 M100.12686445534212,285.04946745734867 L100.55014989072424,284.79245289038863 M100.55014989072424,284.79245289038863 L101.05936062696986,284.70902555428495 M101.05936062696986,284.70902555428495 L101.6289711686922,284.803382365631 M101.6289711686922,284.803382365631 L102.23040088097457,285.07080131906815 M99.98391973925573,328.0129377863272 L89.39089777616567,334.6045291772103 M89.39089777616567,334.6045291772103 L79.95715032297142,341.75687658803275 M79.95715032297142,341.75687658803275 L71.77431440595495,349.4026779257466 M71.77431440595495,349.4026779257466 L64.92248245593368,357.4697441955605 M64.92248245593368,357.4697441955605 L59.46941704583094,365.8816690400526 M59.46941704583094,365.8816690400526 L55.46984634148089,374.55851923316095 M55.46984634148089,374.55851923316095 L52.96477355897093,383.4175169305932 M52.96477355897093,383.4175169305932 L51.98104466488542,392.37384019854613 M51.98104466488542,392.37384019854613 L52.531019989451806,401.34142073151986 M52.531019989451806,401.34142073151986 L54.612244359016984,410.23375466592256 M54.612244359016984,410.23375466592256 L58.20750334098693,418.9647480464802 M58.20750334098693,418.9647480464802 L63.284690461365585,427.4495456124159 M63.284690461365585,427.4495456124159 L69.7972083841671,435.60538734785536 M69.7972083841671,435.60538734785536 L77.68422767851484,443.35247350575645 M77.68422767851484,443.35247350575645 L86.87118790136844,450.61472714744485 M86.87118790136844,450.61472714744485 L97.27052026848946,457.32062116291894 M99.55701666928178,286.693728033495 L88.94861804059161,293.27556316821904 M88.94861804059161,293.27556316821904 L79.50112365668264,300.41733424079314 M79.50112365668264,300.41733424079314 L71.30630511041971,308.05184094946185 M71.30630511041971,308.05184094946185 L64.44437388114102,316.1070030450551 M64.44437388114102,316.1070030450551 L58.98319484043918,324.506528780033 M58.98319484043918,324.506528780033 L54.97758055234709,333.1706042936234 M54.97758055234709,333.1706042936234 L52.46859957059468,342.0165747809283 M52.46859957059468,342.0165747809283 L51.4831433211358,350.9597437847459 M51.4831433211358,350.9597437847459 L52.03359702921301,359.91416970200055 M52.03359702921301,359.91416970200055 L54.117509152220634,368.7934753895981 M54.117509152220634,368.7934753895981 L57.71764747638463,377.5116923960526 M57.71764747638463,377.5116923960526 L62.8018659192856,385.98408856115424 M62.8018659192856,385.98408856115424 L69.32350607528622,394.1280233621713 M69.32350607528622,394.1280233621713 L77.22165616375645,401.86381174260964 M77.22165616375645,401.86381174260964 L86.42165267275288,409.11548562476264 M86.42165267275288,409.11548562476264 L96.8358039417219,415.8116198241128 M97.27052026848946,457.32062116291894 L96.8358039417219,415.8116198241128 M699.4532867629688,486.02096999777336 L699.88974689499,444.47030022973195 M699.4532867629688,486.02096999777336 L373.4975679576421,299.93996921753455 M699.88974689499,444.47030022973195 L373.4624583656339,258.6624084129331 M373.4975679576421,299.93996921753455 L373.42967922318473,300.6845148822524 M373.42967922318473,300.6845148822524 L373.2282049807334,301.46975507723243 M373.2282049807334,301.46975507723243 L372.9032475321066,302.2563311799969 M372.9032475321066,302.2563311799969 L372.4711167728196,303.0048075374901 M372.4711167728196,303.0048075374901 L371.95345725360175,303.6776776557458 M371.95345725360175,303.6776776557458 L371.3762200169341,304.2412102098068 M371.3762200169341,304.2412102098068 L370.7683223224728,304.66716132398346 M370.7683223224728,304.66716132398346 L359.5578857270287,298.86475446408014 M359.5578857270287,298.86475446408014 L347.41180206230524,293.72176050167843 M347.41180206230524,293.72176050167843 L334.4462457146592,289.2862259564735 M334.4462457146592,289.2862259564735 L320.78482686792125,285.5995296057235 M320.78482686792125,285.5995296057235 L306.5573651889088,282.69594901438325 M306.5573651889088,282.69594901438325 L291.8988392785192,280.60250949044087 M291.8988392785192,280.60250949044087 L276.9480017741615,279.3386215577442 M276.9480017741615,279.3386215577442 L261.8462873840124,278.91602047900165 M261.8462873840124,278.91602047900165 L246.73644003231072,279.3386215577442 M246.73644003231072,279.3386215577442 L231.76128931739373,280.6025154099597 M231.76128931739373,280.6025154099597 L217.06246466915536,282.6959608569224 M217.06246466915536,282.6959608569224 L202.77911863088443,285.5995207201761 M202.77911863088443,285.5995207201761 L189.04675942470752,289.28623484664763 M189.04675942470752,289.28623484664763 L175.99583104392937,293.72175160593633 M175.99583104392937,293.72175160593633 L163.7507781027238,298.86475298038 M163.7507781027238,298.86475298038 L152.42867150892553,304.66716132398346 M373.4624583656339,258.6624084129331 L373.3932663395561,257.99379726795274 M373.3932663395561,257.99379726795274 L373.1903388416316,257.4366143481726 M373.1903388416316,257.4366143481726 L372.86383554818156,257.0188080257127 M372.86383554818156,257.0188080257127 L372.4301352787366,256.7613260472774 M372.4301352787366,256.7613260472774 L371.9109612356757,256.6771121402286 M371.9109612356757,256.6771121402286 L371.3323489686404,256.7703966703475 M371.3323489686404,256.7703966703475 L370.723300124598,257.036528882232 M370.723300124598,257.036528882232 L359.49439659230194,251.24407443344535 M359.49439659230194,251.24407443344535 L347.3283150595322,246.10990837993407 M347.3283150595322,246.10990837993407 L334.3414198737642,241.68199232859234 M334.3414198737642,241.68199232859234 L320.65752254527774,238.0016317410523 M320.65752254527774,238.0016317410523 L306.40665351666684,235.10304331322916 M306.40665351666684,235.10304331322916 L291.724010019165,233.01320428156745 M291.724010019165,233.01320428156745 L276.7485690602017,231.7514905937931 M276.7485690602017,231.7514905937931 L261.6219938447712,231.32961659126227 M261.6219938447712,231.32961659126227 L246.48725886153764,231.7514905937931 M246.48725886153764,231.7514905937931 L231.48742453371608,233.01321019090392 M231.48742453371608,233.01321019090392 L216.76434946710418,235.10305513540325 M216.76434946710418,235.10305513540325 L202.4574118274118,238.0016228707789 M202.4574118274118,238.0016228707789 L188.7023401651274,241.68200120349212 M188.7023401651274,241.68200120349212 L175.62979133045172,246.1098994994668 M175.62979133045172,246.1098994994668 L163.36441390892224,251.24407295229113 M163.36441390892224,251.24407295229113 L152.02347172805253,257.0365288822319 M102.71856982122739,332.7494906692245 L92.38527114583678,339.18238541859563 M92.38527114583678,339.18238541859563 L83.18328780700057,346.1623616898942 M83.18328780700057,346.1623616898942 L75.20203128378296,353.62371998729697 M75.20203128378296,353.62371998729697 L68.51954020291271,361.4959563519469 M68.51954020291271,361.4959563519469 L63.2019260476859,369.70451922154126 M63.2019260476859,369.70451922154126 L59.30243111006649,378.1713324716553 M59.30243111006649,378.1713324716553 L56.8609959444197,386.8156210484868 M56.8609959444197,386.8156210484868 L55.90376233281705,395.5546117684152 M55.90376233281705,395.5546117684152 L56.442652246405885,404.3043173301453 M56.442652246405885,404.3043173301453 L58.47521775037069,412.9803447466266 M58.47521775037069,412.9803447466266 L61.98451158824878,421.4986834157364 M61.98451158824878,421.4986834157364 L66.93923249498243,429.7765933253845 M66.93923249498243,429.7765933253845 L73.2937576528937,437.7333392634914 M73.2937576528937,437.7333392634914 L80.98874181365176,445.2911017376852 M80.98874181365176,445.2911017376852 L89.95138243301523,452.3756942806484 M89.95138243301523,452.3756942806484 L100.0962194651525,458.917381001672 M696.6882178814202,490.81020978704333 L370.7683223224728,304.66716132398346 M100.0962194651525,458.917381001672 L426.0162096740789,649.1588937777487 M699.3694967968613,619.8133017539095 L709.6265998011728,613.1239845197648 M709.6265998011728,613.1239845197648 L718.6880198680923,605.879592962243 M718.6880198680923,605.879592962243 L726.4673093291436,598.1514361635088 M726.4673093291436,598.1514361635088 L732.8909932531494,590.0154121003452 M732.8909932531494,590.0154121003452 L737.8989688344336,581.5510857855036 M737.8989688344336,581.5510857855036 L741.4452652751685,572.8410278620728 M741.4452652751685,572.8410278620728 L743.4982335507898,563.9698640066861 M743.4982335507898,563.9698640066861 L744.0407784383237,555.0234807046286 M744.0407784383237,555.0234807046286 L743.0704891605948,546.0881754290447 M743.0704891605948,546.0881754290447 L740.5994847123259,537.2498138462747 M740.5994847123259,537.2498138462747 L736.6542401255081,528.593040196989 M736.6542401255081,528.593040196989 L731.2751419494781,520.2004176728026 M731.2751419494781,520.2004176728026 L724.5161860662547,512.1517553314777 M724.5161860662547,512.1517553314777 L716.4441272014664,504.5232827922569 M716.4441272014664,504.5232827922569 L707.1380124609665,497.3870443126679 M707.1380124609665,497.3870443126679 L696.6882178814202,490.81020978704333 M426.0162096740789,649.1588937777487 L437.53165596605,655.2516690990278 M437.53165596605,655.2516690990278 L450.02127563326303,660.6604831779008 M450.02127563326303,660.6604831779008 L463.3639763932152,665.3316641417887 M463.3639763932152,665.3316641417887 L477.42990055643213,669.2187370489395 M477.42990055643213,669.2187370489395 L492.0818151126627,672.2830197964196 M492.0818151126627,672.2830197964196 L507.17636383684476,674.4939045280553 M507.17636383684476,674.4939045280553 L522.5657038847444,675.8293405279888 M522.5657038847444,675.8293405279888 L538.0988678876316,676.275972732432 M538.0988678876316,676.275972732432 L553.6234364497366,675.8293405279888 M553.6234364497366,675.8293405279888 L568.9870652636289,674.4938982745678 M568.9870652636289,674.4938982745678 L584.0390760876936,672.2830072932447 M584.0390760876936,672.2830072932447 L598.6320241234633,669.218746422371 M598.6320241234633,669.218746422371 L612.6231305887806,665.3316547733663 M612.6231305887806,665.3316547733663 L625.875945388419,660.6604925403059 M625.875945388419,660.6604925403059 L638.2614642557542,655.2516706582677 M638.2614642557542,655.2516706582677 L649.6596576733803,649.1588937777487 M649.6596576733803,649.1588937777487 L699.3694967968613,619.8133017539095 M162.00216017319445,311.59940335207693 L114.77712882986691,338.30108572716154 M114.77712882986691,338.30108572716154 L104.71657944141145,344.56993466689914 M104.71657944141145,344.56993466689914 L95.75878137967618,351.3717598770949 M95.75878137967618,351.3717598770949 L87.99070803424206,358.6424804075942 M87.99070803424206,358.6424804075942 L81.48831794545941,366.31337059328325 M81.48831794545941,366.31337059328325 L76.31589599693592,374.3117401550571 M76.31589599693592,374.3117401550571 L72.52519016078838,382.5615130980839 M72.52519016078838,382.5615130980839 L70.15495603301429,390.9839304980375 M70.15495603301429,390.9839304980375 L69.23052113250048,399.4983647349037 M69.23052113250048,399.4983647349037 L69.76336357580362,408.02296709930647 M69.76336357580362,408.02296709930647 L71.75094230523081,416.475516201722 M71.75094230523081,416.475516201722 L75.17661765541038,424.77418219828616 M75.17661765541038,424.77418219828616 L80.0097319046339,432.83836012844483 M80.0097319046339,432.83836012844483 L86.20577352077339,440.5894511028262 M86.20577352077339,440.5894511028262 L93.70678573831822,447.95165638269896 M93.70678573831822,447.95165638269896 L102.44179308166389,454.85275853080935 M102.44179308166389,454.85275853080935 L112.32748124169473,461.22485106297086 M112.32748124169473,461.22485106297086 L421.95071432967427,641.8929602978237 M421.95071432967427,641.8929602978237 L433.1564833346919,647.8198057772017 M433.1564833346919,647.8198057772017 L445.31033533238605,653.0812007717839 M445.31033533238605,653.0812007717839 L458.2944286480071,657.6249765702694 M458.2944286480071,657.6249765702694 L471.9824563247569,661.4059810600536 M471.9824563247569,661.4059810600536 L486.24088222969135,664.3865953719073 M486.24088222969135,664.3865953719073 L500.930305694805,666.5371053079622 M500.930305694805,666.5371053079622 L515.9068879861079,667.8360623753418 M515.9068879861079,667.8360623753418 L531.0237929974413,668.2704950469155 M531.0237929974413,668.2704950469155 L546.1327553805075,667.8360623753418 M546.1327553805075,667.8360623753418 L561.0855570507591,666.5370990613117 M561.0855570507591,666.5370990613117 L575.7356793084517,664.3865922495056 M575.7356793084517,664.3865922495056 L589.9396168176826,661.4059873022971 M589.9396168176826,661.4059873022971 L603.5585010793396,657.6249672117738 M603.5585010793396,657.6249672117738 L616.4595323934027,653.0811976542356 M616.4595323934027,653.0811976542356 L628.5171862902539,647.8198057772019 M628.5171862902539,647.8198057772019 L639.614593571751,641.8929618541985 M639.614593571751,641.8929618541985 L686.8394044763012,614.0396910717305 M686.8394044763012,614.0396910717305 L696.8290358575015,607.5310804590258 M696.8290358575015,607.5310804590258 L705.6555153567153,600.4821974941376 M705.6555153567153,600.4821974941376 L713.2346625136897,592.9624075319733 M713.2346625136897,592.9624075319733 L719.494819871734,585.0455126733928 M719.494819871734,585.0455126733928 L724.3773700559327,576.8089176962708 M724.3773700559327,576.8089176962708 L727.8374224887607,568.3329181800068 M727.8374224887607,568.3329181800068 L729.844044378026,559.6998826270275 M729.844044378026,559.6998826270275 L730.3804388395175,550.9933464897458 M730.3804388395175,550.9933464897458 L729.4440970072344,542.2973056263277 M729.4440970072344,542.2973056263277 L727.0466767655897,533.6953341426201 M727.0466767655897,533.6953341426201 L723.2137949527195,525.2698192962372 M723.2137949527195,525.2698192962372 L717.9846656495461,517.1011561787309 M717.9846656495461,517.1011561787309 L711.411676749776,509.2670239470004 M711.411676749776,509.2670239470004 L703.5597490319418,501.8416745373414 M703.5597490319418,501.8416745373414 L694.5057145369243,494.89525649315976 M694.5057145369243,494.89525649315976 L684.3374855622523,488.49320818627194 M684.3374855622523,488.49320818627194 L374.7143239286567,311.59940483844395 M374.7143239286567,311.59940483844395 L363.7911398309664,305.94372096915976 M363.7911398309664,305.94372096915976 L351.956367714431,300.9306805297685 M351.956367714431,300.9306805297685 L339.3232496599699,296.60715402625436 M339.3232496599699,296.60715402625436 L326.0122335341944,293.0134931979757 M326.0122335341944,293.0134931979757 L312.14988811049886,290.1831649884135 M312.14988811049886,290.1831649884135 L297.86773372627687,288.14250850972667 M297.86773372627687,288.14250850972667 L283.3010484533053,286.91048243525063 M283.3010484533053,286.91048243525063 L268.58768694093527,286.49853157380124 M268.58768694093527,286.49853157380124 L253.8667938298366,286.91048243525063 M253.8667938298366,286.91048243525063 L239.2776148507587,288.1425144355524 M239.2776148507587,288.1425144355524 L224.95813606769727,290.1831679521801 M224.95813606769727,290.1831679521801 L211.04403934889444,293.01348726807385 M211.04403934889444,293.01348726807385 L197.66733659124384,296.60716292561943 M197.66733659124384,296.60716292561943 L184.9551622200384,300.93068349803355 M184.9551622200384,300.93068349803355 L173.02874314454397,305.94372096915976 M173.02874314454397,305.94372096915976 L162.00216017319445,311.59940335207693 M97.27052026848946,457.32062116291894 L97.34796785393331,457.9901931518113 M97.34796785393331,457.9901931518113 L97.56157414259326,458.54635658620174 M97.56157414259326,458.54635658620174 L97.9006157468068,458.96122848291617 M97.9006157468068,458.96122848291617 L98.34805793280032,459.21403005471194 M98.34805793280032,459.21403005471194 L98.88146875117991,459.2920937661824 M98.88146875117991,459.2920937661824 L99.47408940559922,459.1915273830553 M99.47408940559922,459.1915273830553 L100.0962194651525,458.917381001672 M102.23040088097457,285.07080131906815 L91.87979326222012,291.4927133261844 M91.87979326222012,291.4927133261844 L82.66233705697994,298.4607837064076 M82.66233705697994,298.4607837064076 L74.6675952218717,305.9094275219255 M74.6675952218717,305.9094275219255 L67.97374018286558,313.76826326772107 M67.97374018286558,313.76826326772107 L62.64699850633053,321.962868330634 M62.64699850633053,321.962868330634 L58.74070714292162,330.4153010414933 M58.74070714292162,330.4153010414933 L56.29487997253233,339.0449248208399 M56.29487997253233,339.0449248208399 L55.33570973236107,347.76910772456563 M55.33570973236107,347.76910772456563 L55.87514604388781,356.5040050839416 M55.87514604388781,356.5040050839416 L57.91074482023254,365.16536654929024 M57.91074482023254,365.16536654929024 L61.425538384787785,373.6693228329499 M61.425538384787785,373.6693228329499 L66.38818077660414,381.93327244370005 M66.38818077660414,381.93327244370005 L72.75298003105723,389.8766147112871 M72.75298003105723,389.8766147112871 L80.4604980847351,397.421659245789 M80.4604980847351,397.421659245789 L89.43781617472507,404.4943421294691 M89.43781617472507,404.4943421294691 L99.59933582000133,411.02504220259675 M697.1873166656106,442.8644498911211 L370.723300124598,257.036528882232 M99.59933582000133,411.02504220259675 L426.06344764467696,600.9513952077317 M699.8776059336618,571.6538696362707 L710.1517630574085,564.9755371270242 M710.1517630574085,564.9755371270242 L719.2281860520111,557.7430535210542 M719.2281860520111,557.7430535210542 L727.0202856862751,550.0276132997523 M727.0202856862751,550.0276132997523 L733.4544684904238,541.9049919436369 M733.4544684904238,541.9049919436369 L738.4705366638088,533.454625475619 M738.4705366638088,533.454625475619 L742.0224490561875,524.7589500458582 M742.0224490561875,524.7589500458582 L744.0785110302746,515.9024528232646 M744.0785110302746,515.9024528232646 L744.621606641621,506.9708790255982 M744.621606641621,506.9708790255982 L743.6493292469005,498.05038347165265 M743.6493292469005,498.05038347165265 L741.1738263094445,489.22668917542796 M741.1738263094445,489.22668917542796 L737.2216251176721,480.58429905525014 M737.2216251176721,480.58429905525014 L731.8331872734591,472.2056377810217 M731.8331872734591,472.2056377810217 L725.0626057819303,464.1703798744887 M725.0626057819303,464.1703798744887 L716.9767529399262,456.5546258642431 M716.9767529399262,456.5546258642431 L707.6548129356619,449.43029747507944 M707.6548129356619,449.43029747507944 L697.1873166656106,442.8644498911211 M426.06344764467696,600.9513952077317 L437.59838030001123,607.0342159766748 M437.59838030001123,607.0342159766748 L450.1091460427161,612.4342002036735 M450.1091460427161,612.4342002036735 L463.4744461918001,617.0977609650231 M463.4744461918001,617.0977609650231 L477.56420084793945,620.9784966662023 M477.56420084793945,620.9784966662023 L492.24094144309055,624.0377860998249 M492.24094144309055,624.0377860998249 L507.36106511516607,626.245069502285 M507.36106511516607,626.245069502285 L522.7764742603058,627.5783307490309 M522.7764742603058,627.5783307490309 L538.3359411439706,628.0242357068167 M538.3359411439706,628.0242357068167 L553.8867834598827,627.5783307490309 M553.8867834598827,627.5783307490309 L569.2763942680157,626.2450632589822 M569.2763942680157,626.2450632589822 L584.3538359021156,624.0377736170198 M584.3538359021156,624.0377736170198 L598.9714102236292,620.9785060243563 M598.9714102236292,620.9785060243563 L612.9860938220146,617.0977516118783 M612.9860938220146,617.0977516118783 L626.2612036742948,612.4342095508005 M626.2612036742948,612.4342095508005 L638.6675163089091,607.0342175333683 M638.6675163089091,607.0342175333683 L650.0847994087625,600.9513952077318 M650.0847994087625,600.9513952077318 L699.8776059336618,571.6538696362707 M111.85091754194872,413.3286392797146 L101.94896090383145,406.9672450245338 M101.94896090383145,406.9672450245338 L93.19963598960402,400.0777399591194 M93.19963598960402,400.0777399591194 L85.68639223603782,392.7279188255966 M85.68639223603782,392.7279188255966 L79.48031861767345,384.9898797554404 M79.48031861767345,384.9898797554404 L74.63946277206304,376.93929574077816 M74.63946277206304,376.93929574077816 L71.20840393654902,368.6546347088796 M71.20840393654902,368.6546347088796 L69.21784389008809,360.2163667091817 M69.21784389008809,360.2163667091817 L68.68444265355868,351.7061839921005 M68.68444265355868,351.7061839921005 L69.61073803924432,343.20616905009996 M69.61073803924432,343.20616905009996 L71.98522545362368,334.79803167861854 M71.98522545362368,334.79803167861854 L75.78252818894765,326.56226202113567 M75.78252818894765,326.56226202113567 L80.96381966676114,318.5774841005389 M80.96381966676114,318.5774841005389 L87.47726006862115,310.919643027671 M87.47726006862115,310.919643027671 L95.25845273398437,303.66130348826 M95.25845273398437,303.66130348826 L104.23130898825332,296.8710719231357 M104.23130898825332,296.8710719231357 L114.30870815315552,290.61291769053065 M421.9910623623493,593.6973442923888 L111.85091754194872,413.3286392797146 M640.0225570488343,593.697345846217 L628.9065663630129,599.6144962036212 M628.9065663630129,599.6144962036212 L616.8286736996707,604.8672897221375 M616.8286736996707,604.8672897221375 L603.9059456432972,609.4036388598678 M603.9059456432972,609.4036388598678 L590.2641198372347,613.1784878305431 M590.2641198372347,613.1784878305431 L576.0362225199309,616.1542303808001 M576.0362225199309,616.1542303808001 L561.3613599273979,618.3012302541542 M561.3613599273979,618.3012302541542 L546.3832837434537,619.5980758044585 M546.3832837434537,619.5980758044585 L531.2487646881812,620.0318002865544 M531.2487646881812,620.0318002865544 L516.1062761046581,619.5980758044585 M516.1062761046581,619.5980758044585 L501.10433881888275,618.3012364906197 M501.10433881888275,618.3012364906197 L486.39004191078436,616.1542334981092 M486.39004191078436,616.1542334981092 L472.1074717137896,613.1784815984851 M472.1074717137896,613.1784815984851 L458.3962684835988,609.403648203085 M458.3962684835988,609.403648203085 L445.3901973406261,604.867292834593 M445.3901973406261,604.867292834593 L433.21578117837356,599.6144962036212 M433.21578117837356,599.6144962036212 L421.9910623623493,593.6973442923888 M687.3261893330406,565.8897393562885 L640.0225570488343,593.697345846217 M684.815865166991,440.5513213542463 L695.0013067859599,446.94267113369426 M695.0013067859599,446.94267113369426 L704.0707249483203,453.8774917166922 M704.0707249483203,453.8774917166922 L711.9360568664987,461.29045645340597 M711.9360568664987,461.29045645340597 L718.5203374330636,469.1115360897956 M718.5203374330636,469.1115360897956 L723.7585317294115,477.26660442450236 M723.7585317294115,477.26660442450236 L727.5981578398234,485.6781132566983 M727.5981578398234,485.6781132566983 L729.9999290366054,494.265802406204 M729.9999290366054,494.265802406204 L730.9381781295435,502.947422215772 M730.9381781295435,502.947422215772 L730.4012200151303,511.6395374902611 M730.4012200151303,511.6395374902611 L728.3915600633634,520.2582913055874 M728.3915600633634,520.2582913055874 L724.9260158381969,528.7202857119685 M724.9260158381969,528.7202857119685 L720.0355649685524,536.9432871396945 M720.0355649685524,536.9432871396945 L713.7651669567902,544.8471309287904 M713.7651669567902,544.8471309287904 L706.1735320079358,552.354537933182 M706.1735320079358,552.354537933182 L697.3324333311807,559.3918253164685 M697.3324333311807,559.3918253164685 L687.3261893330406,565.8897393562885 M374.6757922793604,263.95689231703193 L684.815865166991,440.5513213542463 M161.61256235204146,263.956890833211 L172.65749219553908,258.31089999463376 M172.65749219553908,258.31089999463376 L184.6037115832041,253.3064590457931 M184.6037115832041,253.3064590457931 L197.33695163228913,248.99035727677062 M197.33695163228913,248.99035727677062 L210.7357866179602,245.40285137303454 M210.7357866179602,245.40285137303454 L224.67287450836517,242.57739336417856 M224.67287450836517,242.57739336417856 L239.0159885858967,240.54024599264255 M239.0159885858967,240.54024599264255 L253.6292267845713,239.31033127406664 M253.6292267845713,239.31033127406664 L268.3743795425721,238.8990884404283 M268.3743795425721,238.8990884404283 L283.11197586436583,239.31033127406664 M283.11197586436583,239.31033127406664 L297.70264612207075,240.54024007699962 M297.70264612207075,240.54024007699962 L312.00831271782056,242.5773904055034 M312.00831271782056,242.5773904055034 L325.89347859873425,245.4028572927533 M325.89347859873425,245.4028572927533 L339.2264101830961,248.99034839268063 M339.2264101830961,248.99034839268063 L351.88033300047607,253.30645608261983 M351.88033300047607,253.30645608261983 L363.734602832078,258.3108999946338 M363.734602832078,258.3108999946338 L374.6757922793604,263.95689231703193 M114.30870815315552,290.61291769053065 L161.61256235204146,263.956890833211 M96.8358039417219,415.8116198241128 L96.89847535181565,415.06023184039975 M96.89847535181565,415.06023184039975 L97.09827139559616,414.2668152295669 M97.09827139559616,414.2668152295669 L97.42517735933552,413.47117121994125 M97.42517735933552,413.47117121994125 L97.86277590662093,412.71322209256687 M97.86277590662093,412.71322209256687 L98.38912875308756,412.03099091112813 M98.38912875308756,412.03099091112813 L98.97782193024602,411.4586979200138 M98.97782193024602,411.4586979200138 L99.59933582000133,411.02504220259675 M97.27052026848946,457.32062116291894 L423.2263268413317,647.5837385919292 M96.8358039417219,415.8116198241128 L423.2631807476259,605.8015997481775 M423.2263268413317,647.5837385919292 L423.2631807476259,605.8015997481775 M702.2276677310068,618.2347408214912 L702.6722061860646,576.494259260277 M702.2276677310068,618.2347408214912 L712.7420863464968,611.377480378181 M712.7420863464968,611.377480378181 L722.0302894289935,603.9513800831885 M722.0302894289935,603.9513800831885 L730.0037353952746,596.0295973509284 M730.0037353952746,596.0295973509284 L736.5870982301767,587.6899458192273 M736.5870982301767,587.6899458192273 L741.7188990701577,579.014056564247 M741.7188990701577,579.014056564247 L745.3520076770719,570.0865374823684 M745.3520076770719,570.0865374823684 L747.4540901147927,560.9941654998418 M747.4540901147927,560.9941654998418 L748.0077574483289,551.8249855580415 M748.0077574483289,551.8249855580415 L747.0105884791094,542.6674444947453 M747.0105884791094,542.6674444947453 L744.475142800274,533.6095450106739 M744.475142800274,533.6095450106739 L740.4285827305088,524.73799835366 M740.4285827305088,524.73799835366 L734.9124987109419,516.1374274301509 M734.9124987109419,516.1374274301509 L727.9822173174318,507.88957319118697 M727.9822173174318,507.88957319118697 L719.706285064301,500.0725211848703 M719.706285064301,500.0725211848703 L710.1657535533647,492.7600560319763 M710.1657535533647,492.7600560319763 L699.4532867629688,486.02096999777336 M702.6722061860646,576.494259260277 L713.2017736875772,569.6467568496528 M713.2017736875772,569.6467568496528 L722.5033020777879,562.2312347383915 M722.5033020777879,562.2312347383915 L730.4881241796273,554.3207485109905 M730.4881241796273,554.3207485109905 L737.08080873993,545.9930030213281 M737.08080873993,545.9930030213281 L742.2197927991498,537.329514698898 M742.2197927991498,537.329514698898 L745.857883727244,528.4147720407658 M745.857883727244,528.4147720407658 L747.9627073568529,519.3354289036515 M747.9627073568529,519.3354289036515 L748.5168566788642,510.1794047270852 M748.5168566788642,510.1794047270852 L747.5179143788671,501.0350196268605 M747.5179143788671,501.0350196268605 L744.9784656749945,491.9901495698568 M744.9784656749945,491.9901495698568 L740.925719468583,483.13138029324574 M740.925719468583,483.13138029324574 L735.4013332665094,474.5432116024508 M735.4013332665094,474.5432116024508 L728.4607199858991,466.30726496098725 M728.4607199858991,466.30726496098725 L720.1725308317746,458.50151123747764 M720.1725308317746,458.50151123747764 L710.6179392665055,451.19962620739216 M710.6179392665055,451.19962620739216 L699.88974689499,444.47030022973195 M699.4532867629688,486.02096999777336 L699.377348030222,486.77120124995963 M699.377348030222,486.77120124995963 L699.1682477884119,487.5639038359829 M699.1682477884119,487.5639038359829 L698.8364705705882,488.35934525351263 M698.8364705705882,488.35934525351263 L698.3986680055382,489.11764541503464 M698.3986680055382,489.11764541503464 L697.8767687942969,489.80080588815804 M697.8767687942969,489.80080588815804 L697.2969363402415,490.3745796533202 M697.2969363402415,490.3745796533202 L696.6882178814202,490.81020978704333 M699.88974689499,444.47030022973195 L699.8286486429748,443.79802498125446 M699.8286486429748,443.79802498125446 L699.6334295020832,443.2394235172551 M699.6334295020832,443.2394235172551 L699.3138624410149,442.82251566277495 M699.3138624410149,442.82251566277495 L698.8859782815069,442.5682041912296 M698.8859782815069,442.5682041912296 L698.3712082403,442.4892745657718 M698.3712082403,442.4892745657718 L697.795366869773,442.5896924426264 M697.795366869773,442.5896924426264 L697.1873166656106,442.8644498911211 M423.2263268413317,647.5837385919292 L423.2957245999024,648.2568990110221 M423.2957245999024,648.2568990110221 L423.5017054102323,648.81433795765 M423.5017054102323,648.81433795765 L423.83392808419296,649.2281087520083 M423.83392808419296,649.2281087520083 L424.2756995712078,649.4774885493711 M424.2756995712078,649.4774885493711 L424.8048720079928,649.5499816379563 M424.8048720079928,649.5499816379563 L425.39489888560684,649.4419756403812 M425.39489888560684,649.4419756403812 L426.0162096740789,649.1588937777487 M702.2276677310068,618.2347408214912 L702.1492569053429,618.9073567635991 M702.1492569053429,618.9073567635991 L701.9331447291594,619.4646093914295 M701.9331447291594,619.4646093914295 L701.5901805484507,619.8785613268915 M701.5901805484507,619.8785613268915 L701.13759632831,620.1284805288867 M701.13759632831,620.1284805288867 L700.5980819211308,620.2018442001611 M700.5980819211308,620.2018442001611 L699.9986915897654,620.0949900209247 M699.9986915897654,620.0949900209247 L699.3694967968613,619.8133017539095 M423.2263268413317,647.5837385919292 L435.0312410086163,653.8296313832558 M435.0312410086163,653.8296313832558 L447.8352842201844,659.3744785548561 M447.8352842201844,659.3744785548561 L461.51428858197556,664.1632217679183 M461.51428858197556,664.1632217679183 L475.93509518626564,668.1481924247317 M475.93509518626564,668.1481924247317 L490.95695814237814,671.2896675624745 M490.95695814237814,671.2896675624745 L506.4328769949691,673.5562982931145 M506.4328769949691,673.5562982931145 L522.211152422062,674.9253953679781 M522.211152422062,674.9253953679781 L538.1369701541573,675.3832948113157 M538.1369701541573,675.3832948113157 L554.0539726689512,674.9253953679781 M554.0539726689512,674.9253953679781 L569.8058963307611,673.5562951657311 M569.8058963307611,673.5562951657311 L585.2381741643107,671.2896800681107 M585.2381741643107,671.2896800681107 L600.1995377197152,668.1481924247317 M600.1995377197152,668.1481924247317 L614.5436385474147,664.1632155212247 M614.5436385474147,664.1632155212247 L628.13046354478,659.3744785548561 M628.13046354478,659.3744785548561 L640.8277631824351,653.8296298238012 M640.8277631824351,653.8296298238012 L652.512432364395,647.5837385919292 M652.512432364395,647.5837385919292 L652.4352473377564,648.2568990110223 M652.4352473377564,648.2568990110223 L652.220293077304,648.81433795765 M652.220293077304,648.81433795765 L651.8783608937637,649.2281087520084 M651.8783608937637,649.2281087520084 L651.4266310425844,649.4774885493711 M651.4266310425844,649.4774885493711 L650.8877505755206,649.5499816379563 M650.8877505755206,649.5499816379563 L650.288742004035,649.4419694083552 M650.288742004035,649.4419694083552 L649.6596576733803,649.1588937777487 M652.512432364395,647.5837385919292 L702.2276677310068,618.2347408214912 M162.00216017319445,311.59940335207693 L161.61256235204146,263.956890833211 M114.30870815315552,290.61291769053065 L114.77712882986691,338.30108572716154 M111.85091754194872,413.3286392797146 L112.32748124169473,461.22485106297086 M421.9910623623493,593.6973442923888 L421.95071432967427,641.8929602978237 M640.0225570488343,593.697345846217 L639.614593571751,641.8929618541985 M687.3261893330406,565.8897393562885 L686.8394044763012,614.0396910717305 M684.815865166991,440.5513213542463 L684.3374855622523,488.49320818627194 M374.6757922793604,263.95689231703193 L374.7143239286567,311.59940483844395 M423.2631807476259,605.8015997481775 L423.3339461217052,605.0444495388118 M423.3339461217052,605.0444495388118 L423.541451063409,604.243426618091 M423.541451063409,604.243426618091 L423.875294118824,603.438713897162 M423.875294118824,603.438713897162 L424.3187099026851,602.6706891002397 M424.3187099026851,602.6706891002397 L424.84946807973705,601.9778808189458 M424.84946807973705,601.9778808189458 L425.4409336096738,601.3950401587384 M425.4409336096738,601.3950401587384 L426.06344764467696,600.9513952077317 M702.6722061860646,576.494259260277 L702.6089053652878,575.737990683826 M702.6089053652878,575.737990683826 L702.4069153793952,574.9381360592388 M702.4069153793952,574.9381360592388 L702.0763608886803,574.1348196727745 M702.0763608886803,574.1348196727745 L701.6338425165055,573.3683491221051 M701.6338425165055,573.3683491221051 L701.1015453066909,572.6771750173164 M701.1015453066909,572.6771750173164 L700.506170899824,572.0959602477928 M700.506170899824,572.0959602477928 L699.8776059336618,571.6538696362707 M423.2631807476259,605.8015997481775 L435.0854060407187,612.038649649241 M435.0854060407187,612.038649649241 L447.9082361883491,617.575653048461 M447.9082361883491,617.575653048461 L461.60731985547744,622.3576270604656 M461.60731985547744,622.3576270604656 L476.0493006128558,626.3369682214178 M476.0493006128558,626.3369682214178 L491.0932231274346,629.4740077082225 M491.0932231274346,629.4740077082225 L506.59186767239737,631.7374392712609 M506.59186767239737,631.7374392712609 L522.3933082752255,633.1046044765143 M522.3933082752255,633.1046044765143 L538.342499154769,633.56185788334 M538.342499154769,633.56185788334 L554.2828489299083,633.1046044765143 M554.2828489299083,633.1046044765143 L570.0578603788733,631.7374361482908 M570.0578603788733,631.7374361482908 L585.5127357788718,629.4740201962051 M585.5127357788718,629.4740201962051 L600.4959813257867,626.3369682214178 M600.4959813257867,626.3369682214178 L614.8610311733847,622.357620822599 M614.8610311733847,622.357620822599 L628.4676650125241,617.575653048461 M628.4676650125241,617.575653048461 L641.1834385155947,612.0386480919934 M641.1834385155947,612.0386480919934 L652.8850663058136,605.8015997481775 M652.8850663058136,605.8015997481775 L652.8205296890127,605.0444495388118 M652.8205296890127,605.0444495388118 L652.617359426962,604.243426618091 M652.617359426962,604.243426618091 L652.285739391789,603.4387138971621 M652.285739391789,603.4387138971621 L651.8423236681011,602.6706891002397 M651.8423236681011,602.6706891002397 L651.3093423504617,601.9778808189458 M651.3093423504617,601.9778808189458 L650.7135314100616,601.3950339368644 M650.7135314100616,601.3950339368644 L650.0847994087625,600.9513952077318 M652.8850663058136,605.8015997481775 L702.6722061860646,576.494259260277 M652.512432364395,647.5837385919292 L652.8850663058136,605.8015997481775" stroke="black"  stroke-width="4"  fill="red"/>
<path d="M162.00216017319445,311.59940335207693 L114.77712882986691,338.30108572716154 M114.77712882986691,338.30108572716154 L114.71476211534923,331.9517623311624 M114.71476211534923,331.9517623311624 L161.9502879935117,305.2561415684122 M162.00216017319445,311.59940335207693 L161.9502879935117,305.2561415684122 M114.77712882986691,338.30108572716154 L104.71657944141145,344.56993466689914 M104.71657944141145,344.56993466689914 L95.75878137967618,351.3717598770949 M95.75878137967618,351.3717598770949 L87.99070803424206,358.6424804075942 M87.99070803424206,358.6424804075942 L81.48831794545941,366.31337059328325 M81.48831794545941,366.31337059328325 L76.31589599693592,374.3117401550571 M76.31589599693592,374.3117401550571 L72.52519016078838,382.5615130980839 M72.52519016078838,382.5615130980839 L70.15495603301429,390.9839304980375 M70.15495603301429,390.9839304980375 L69.23052113250048,399.4983647349037 M69.23052113250048,399.4983647349037 L69.76336357580362,408.02296709930647 M69.76336357580362,408.02296709930647 L71.75094230523081,416.475516201722 M71.75094230523081,416.475516201722 L75.17661765541038,424.77418219828616 M75.17661765541038,424.77418219828616 L80.0097319046339,432.83836012844483 M80.0097319046339,432.83836012844483 L86.20577352077339,440.5894511028262 M86.20577352077339,440.5894511028262 L93.70678573831822,447.95165638269896 M93.70678573831822,447.95165638269896 L102.44179308166389,454.85275853080935 M102.44179308166389,454.85275853080935 L112.32748124169473,461.22485106297086 M112.32748124169473,461.22485106297086 L421.95071432967427,641.8929602978237 M421.95071432967427,641.8929602978237 L433.1564833346919,647.8198057772017 M433.1564833346919,647.8198057772017 L445.31033533238605,653.0812007717839 M445.31033533238605,653.0812007717839 L458.2944286480071,657.6249765702694 M458.2944286480071,657.6249765702694 L471.9824563247569,661.4059810600536 M471.9824563247569,661.4059810600536 L486.24088222969135,664.3865953719073 M486.24088222969135,664.3865953719073 L500.930305694805,666.5371053079622 M500.930305694805,666.5371053079622 L515.9068879861079,667.8360623753418 M515.9068879861079,667.8360623753418 L531.0237929974413,668.2704950469155 M531.0237929974413,668.2704950469155 L546.1327553805075,667.8360623753418 M546.1327553805075,667.8360623753418 L561.0855570507591,666.5370990613117 M561.0855570507591,666.5370990613117 L575.7356793084517,664.3865922495056 M575.7356793084517,664.3865922495056 L589.9396168176826,661.4059873022971 M589.9396168176826,661.4059873022971 L603.5585010793396,657.6249672117738 M603.5585010793396,657.6249672117738 L616.4595323934027,653.0811976542356 M616.4595323934027,653.0811976542356 L628.5171862902539,647.8198057772019 M628.5171862902539,647.8198057772019 L639.614593571751,641.8929618541985 M639.614593571751,641.8929618541985 L686.8394044763012,614.0396910717305 M686.8394044763012,614.0396910717305 L696.8290358575015,607.5310804590258 M696.8290358575015,607.5310804590258 L705.6555153567153,600.4821974941376 M705.6555153567153,600.4821974941376 L713.2346625136897,592.9624075319733 M713.2346625136897,592.9624075319733 L719.494819871734,585.0455126733928 M719.494819871734,585.0455126733928 L724.3773700559327,576.8089176962708 M724.3773700559327,576.8089176962708 L727.8374224887607,568.3329181800068 M727.8374224887607,568.3329181800068 L729.844044378026,559.6998826270275 M729.844044378026,559.6998826270275 L730.3804388395175,550.9933464897458 M730.3804388395175,550.9933464897458 L729.4440970072344,542.2973056263277 M729.4440970072344,542.2973056263277 L727.0466767655897,533.6953341426201 M727.0466767655897,533.6953341426201 L723.2137949527195,525.2698192962372 M723.2137949527195,525.2698192962372 L717.9846656495461,517.1011561787309 M717.9846656495461,517.1011561787309 L711.411676749776,509.2670239470004 M711.411676749776,509.2670239470004 L703.5597490319418,501.8416745373414 M703.5597490319418,501.8416745373414 L694.5057145369243,494.89525649315976 M694.5057145369243,494.89525649315976 L684.3374855622523,488.49320818627194 M684.3374855622523,488.49320818627194 L374.7143239286567,311.59940483844395 M374.7143239286567,311.59940483844395 L363.7911398309664,305.94372096915976 M363.7911398309664,305.94372096915976 L351.956367714431,300.9306805297685 M351.956367714431,300.9306805297685 L339.3232496599699,296.60715402625436 M339.3232496599699,296.60715402625436 L326.0122335341944,293.0134931979757 M326.0122335341944,293.0134931979757 L312.14988811049886,290.1831649884135 M312.14988811049886,290.1831649884135 L297.86773372627687,288.14250850972667 M297.86773372627687,288.14250850972667 L283.3010484533053,286.91048243525063 M283.3010484533053,286.91048243525063 L268.58768694093527,286.49853157380124 M268.58768694093527,286.49853157380124 L253.8667938298366,286.91048243525063 M253.8667938298366,286.91048243525063 L239.2776148507587,288.1425144355524 M239.2776148507587,288.1425144355524 L224.95813606769727,290.1831679521801 M224.95813606769727,290.1831679521801 L211.04403934889444,293.01348726807385 M211.04403934889444,293.01348726807385 L197.66733659124384,296.60716292561943 M197.66733659124384,296.60716292561943 L184.9551622200384,300.93068349803355 M184.9551622200384,300.93068349803355 L173.02874314454397,305.94372096915976 M173.02874314454397,305.94372096915976 L162.00216017319445,311.59940335207693 M112.32748124169473,461.22485106297086 L112.26403113095165,454.847907239002 M112.26403113095165,454.847907239002 L102.37617692925829,448.4772349883547 M102.37617692925829,448.4772349883547 L93.63926328370212,441.57767245151985 M93.63926328370212,441.57767245151985 L86.13662249516221,434.2171112793472 M86.13662249516221,434.2171112793472 L79.93924515153958,426.4677530714235 M79.93924515153958,426.4677530714235 L75.10510011824903,418.40537987349614 M75.10510011824903,418.40537987349614 L71.67870794300995,410.1085731892575 M71.67870794300995,410.1085731892575 L69.69073221471103,401.65792006898425 M69.69073221471103,401.65792006898425 L69.15781531028983,393.1352320898002 M69.15781531028983,393.1352320898002 L70.08249785677066,384.6227122010502 M70.08249785677066,384.6227122010502 L72.45329821382455,376.20219066931827 M72.45329821382455,376.20219066931827 L76.24488231483213,367.95427686229783 M76.24488231483213,367.95427686229783 L81.41848511432573,359.9577117935314 M81.41848511432573,359.9577117935314 L87.92234641272807,352.2885540801321 M87.92234641272807,352.2885540801321 L95.69216644520299,345.01947732562724 M95.69216644520299,345.01947732562724 L104.65196934585026,338.21919136493216 M104.65196934585026,338.21919136493216 L114.71476211534923,331.9517623311624 M171.50735000701482,489.40166327971104 L186.85023563074867,493.4273640766501 M186.85023563074867,493.4273640766501 L202.75631470864494,496.6710810572141 M202.75631470864494,496.6710810572141 L219.1045432461773,499.10750894342453 M219.1045432461773,499.10750894342453 L235.7702868311949,500.71763610025863 M235.7702868311949,500.71763610025863 L252.62631994903737,501.4888829974511 M252.62631994903737,501.4888829974511 L269.54386814076673,501.4152258003125 M269.54386814076673,501.4152258003125 L286.39366405830754,500.49723416964594 M286.39366405830754,500.49723416964594 L303.0469920559915,498.742084021841 M303.0469920559915,498.742084021841 L319.3767367361698,496.1634887623304 M319.3767367361698,496.1634887623304 L335.25843290309814,492.78156850050595 M335.25843290309814,492.78156850050595 L350.5712493672529,488.6226881534692 M350.5712493672529,488.6226881534692 L365.19898265025984,483.71921344329365 M365.19898265025984,483.71921344329365 L379.03095984574946,478.1092395427594 M379.03095984574946,478.1092395427594 L391.9629275302248,471.8362511924051 M391.9629275302248,471.8362511924051 L403.8978420670491,464.948759716992 M403.8978420670491,464.948759716992 L414.7466218066926,457.49988134756137 M414.7466218066926,457.49988134756137 L424.42879864150916,449.54689615285923 M424.42879864150916,449.54689615285923 L432.8731164872543,441.15076226684266 M432.8731164872543,441.15076226684266 L440.0180130570356,432.3756231242967 M440.0180130570356,432.3756231242967 L445.812051141693,423.2882741876196 M445.812051141693,423.2882741876196 L450.21422617779785,413.95763843870964 M450.21422617779785,413.95763843870964 L453.19422615677803,404.45420682293263 M453.19422615677803,404.45420682293263 L454.73255498362926,394.8495008298895 M454.73255498362926,394.8495008298895 L454.8206118340544,385.2155129883263 M454.8206118340544,385.2155129883263 L453.4606780410893,375.62416247582763 M453.4606780410893,375.62416247582763 L450.6657822631034,366.1467652563974 M450.6657822631034,366.1467652563974 L446.45954420966905,356.85350813518795 M446.45954420966905,356.85350813518795 L440.87589553501766,347.8129383587439 M440.87589553501766,347.8129383587439 L433.95880139433604,339.09148296793273 M374.7091937135291,305.25614305444117 L433.95880139433604,339.09148296793273 M161.9502879935117,305.2561415684122 L172.97931369224492,299.60174592897806 M172.97931369224492,299.60174592897806 L184.9083690163665,294.58984981912914 M184.9083690163665,294.58984981912914 L197.62334811663592,290.2673142447941 M197.62334811663592,290.2673142447941 L211.0029976126607,286.6744577503032 M211.0029976126607,286.6744577503032 L224.92015543738296,283.8447838751651 M224.92015543738296,283.8447838751651 L239.2427810914742,281.80459587370086 M239.2427810914742,281.80459587370086 L253.83516338821747,280.5728449877455 M253.83516338821747,280.5728449877455 L268.55928650566625,280.160988132147 M268.55928650566625,280.160988132147 L283.2758747198039,280.5728449877455 M283.2758747198039,280.5728449877455 L297.84575343363,281.8045899492271 M297.84575343363,281.8045899492271 L312.1310383129183,283.8447809120745 M312.1310383129183,283.8447809120745 L325.99642212930326,286.6744636788531 M325.99642212930326,286.6744636788531 L339.31035615270196,290.26730534745707 M339.31035615270196,290.26730534745707 L351.94624422201605,294.5898468515401 M351.94624422201605,294.5898468515401 L363.7836123272733,299.60174592897806 M363.7836123272733,299.60174592897806 L374.7091937135291,305.25614305444117 M171.50735000701482,489.40166327971104 L112.26403113095165,454.847907239002 M374.7143239286567,311.59940483844395 L374.7091937135291,305.25614305444117 M421.95071432967427,641.8929602978237 L421.95608620441715,635.4762704328477 M421.95608620441715,635.4762704328477 L407.98830818600214,627.3295426121331 M408.00199216899085,587.9751627155605 L407.98830818600214,627.3295426121331 M171.19804524576074,450.23372663314854 L408.00199216899085,587.9751627155605 M171.19804524576074,450.23372663314854 L171.50735000701482,489.40166327971104 M639.614593571751,641.8929618541985 L639.6689091988899,635.4762719888843 M639.6689091988899,635.4762719888843 L628.5690277206645,641.4018291612699 M628.5690277206645,641.4018291612699 L616.5086792412419,646.6620796724901 M616.5086792412419,646.6620796724901 L603.6047592384876,651.2048642295251 M603.6047592384876,651.2048642295251 L589.9828205634203,654.9850651561144 M589.9828205634203,654.9850651561144 L575.7756930766046,657.9650246626479 M575.7756930766046,657.9650246626479 L561.1222769284574,660.1150659597918 M561.1222769284574,660.1150659597918 L546.1661102524887,661.4137481599646 M546.1661102524887,661.4137481599646 L531.0537453011528,661.8480868258828 M531.0537453011528,661.8480868258828 L515.933434142761,661.4137481599646 M515.933434142761,661.4137481599646 L500.95347613852715,660.1150722050904 M500.95347613852715,660.1150722050904 L486.2607410741738,657.9650277843734 M486.2607410741738,657.9650277843734 L471.9991006477852,654.9850589152229 M471.9991006477852,654.9850589152229 L458.30798742489145,651.2048735859927 M458.30798742489145,651.2048735859927 L445.3209680248007,646.6620827893623 M445.3209680248007,646.6620827893623 L433.16437815328123,641.4018291612699 M433.16437815328123,641.4018291612699 L421.95608620441715,635.4762704328477 M686.8394044763012,614.0396910717305 L686.9042144421985,607.6290628744292 M686.9042144421985,607.6290628744292 L639.6689091988899,635.4762719888843 M684.3374855622523,488.49320818627194 L684.4011772690561,482.11020069707234 M684.4011772690561,482.11020069707234 L694.5716979014531,488.5108287180433 M694.5716979014531,488.5108287180433 L703.6277805368838,495.4557071443424 M703.6277805368838,495.4557071443424 L711.4814928421744,502.87941243720064 M711.4814928421744,502.87941243720064 L718.0559850607841,510.7118118906933 M718.0559850607841,510.7118118906933 L723.2863212185928,518.8786702614495 M723.2863212185928,518.8786702614495 L727.1201009049978,527.3023257783352 M727.1201009049978,527.3023257783352 L729.5181003682181,535.9024012603122 M729.5181003682181,535.9024012603122 L730.4546960676739,544.5965277168896 M730.4546960676739,544.5965277168896 L729.9182264964875,553.3011494829083 M729.9182264964875,553.3011494829083 L727.9112000566955,561.9322891436018 M727.9112000566955,561.9322891436018 L724.4504163872626,570.406429499543 M724.4504163872626,570.406429499543 L719.5668142513092,578.6412199597651 M719.5668142513092,578.6412199597651 L713.3052934042461,586.5563823232284 M713.3052934042461,586.5563823232284 L705.7244835814506,594.0745284881964 M705.7244835814506,594.0745284881964 L696.8960576517555,601.1218721844516 M696.8960576517555,601.1218721844516 L686.9042144421985,607.6290628744292 M434.00729812549673,300.13083893443013 L433.95880139433604,339.09148296793273 M670.8066235021953,434.98762638670394 L434.00729812549673,300.13083893443013 M670.8066235021953,434.98762638670394 L670.4351568589772,474.134704042993 M670.4351568589772,474.134704042993 L684.4011772690561,482.11020069707234 M434.00729812549673,300.13083893443013 L440.9337725052486,308.84014938719656 M440.9337725052486,308.84014938719656 L446.52501072760015,317.86814508613395 M446.52501072760015,317.86814508613395 L450.7369848635106,327.14849284857985 M450.7369848635106,327.14849284857985 L453.5357135880879,336.61274180061673 M453.5357135880879,336.61274180061673 L454.8975411280034,346.1908033116515 M454.8975411280034,346.1908033116515 L454.80941688502384,355.81146065390755 M454.80941688502384,355.81146065390755 L453.2690520690961,365.40289420058355 M453.2690520690961,365.40289420058355 L450.2850548641728,374.89321055112237 M450.2850548641728,374.89321055112237 L445.8769437098208,384.21098617993675 M445.8769437098208,384.21098617993675 L440.07506798155083,393.2858261946259 M440.07506798155083,393.2858261946259 L432.9204845999319,402.0489010536867 M432.9204845999319,402.0489010536867 L424.464697889712,410.4335054043623 M424.464697889712,410.4335054043623 L414.7693516970397,418.3755819331095 M414.7693516970397,418.3755819331095 L403.9057976044944,425.81425397952455 M403.9057976044944,425.81425397952455 L391.9546125593705,432.6923177051965 M391.9546125593705,432.6923177051965 L379.0049996089985,438.9567272858817 M379.0049996089985,438.9567272858817 L365.15413546275096,444.55903546389857 M365.15413546275096,444.55903546389857 L350.50641724325646,449.4558147365061 M350.50641724325646,449.4558147365061 L335.1726710544329,453.6090199273319 M335.1726710544329,453.6090199273319 L319.26926178196925,456.9863276832216 M319.26926178196925,456.9863276832216 L302.91718890118625,459.56140752780675 M302.91718890118625,459.56140752780675 L286.24109129608587,461.31416559038473 M286.24109129608587,461.31416559038473 L269.36826197609713,462.23090632780173 M269.36826197609713,462.23090632780173 L252.42759654048135,462.30446316353823 M252.42759654048135,462.30446316353823 L235.54854304558694,461.53426717764717 M235.54854304558694,461.53426717764717 L218.86005582976355,459.9263343654243 M218.86005582976355,459.9263343654243 L202.48953786165325,457.4932278746144 M202.48953786165325,457.4932278746144 L186.5617970130489,454.25393455336075 M186.5617970130489,454.25393455336075 L171.19804524576074,450.23372663314854 M670.4351568589772,474.134704042993 L654.977569009772,470.1198007159914 M654.977569009772,470.1198007159914 L638.9990055125676,466.8880581298967 M638.9990055125676,466.8880581298967 L622.6164066579189,464.46253810233304 M622.6164066579189,464.46253810233304 L605.9494702269963,462.8605205543956 M605.9494702269963,462.8605205543956 L589.1198182669066,462.0934119751067 M589.1198182669066,462.0934119751067 L572.250166382428,462.166665327895 M572.250166382428,462.166665327895 L555.4634985142116,463.07976854505426 M555.4634985142116,463.07976854505426 L538.8822270907539,464.8262192879994 M538.8822270907539,464.8262192879994 L522.627389204838,467.39358322090555 M522.627389204838,467.39358322090555 L506.8177798414015,470.76356322598514 M506.8177798414015,470.76356322598514 L491.56918276257596,474.9121075474144 M491.56918276257596,474.9121075474144 L476.993543450259,479.8095669436939 M476.993543450259,479.8095669436939 L463.1982183397065,485.42087164272704 M463.1982183397065,485.42087164272704 L450.2851744662672,491.7057462458288 M450.2851744662672,491.7057462458288 L438.35030125690685,498.61896728064085 M438.35030125690685,498.61896728064085 L427.48268550355345,506.1106530199912 M427.48268550355345,506.1106530199912 L417.76395959029287,514.1265782749778 M417.76395959029287,514.1265782749778 L409.26767541480115,522.6085436186207 M409.26767541480115,522.6085436186207 L402.0587201303449,531.4947367479666 M402.0587201303449,531.4947367479666 L396.19279597520216,540.7201735427481 M396.19279597520216,540.7201735427481 L391.7159603463974,550.2171256932916 M391.7159603463974,550.2171256932916 L388.66419905689247,559.9156085137035 M388.66419905689247,559.9156085137035 L387.06308817724056,569.74385047652 M387.06308817724056,569.74385047652 L386.9275314599384,579.6288347743887 M386.9275314599384,579.6288347743887 L388.26152875193003,589.4968183860465 M388.26152875193003,589.4968183860465 L391.05810615196896,599.2738845317358 M391.05810615196896,599.2738845317358 L395.2992415494363,608.8864978814294 M395.2992415494363,608.8864978814294 L400.95593239643046,618.2620715938654 M400.95593239643046,618.2620715938654 L407.98830818600214,627.3295426121331 M408.00199216899085,587.9751627155605 L400.9599205420216,578.9198377107436 M400.9599205420216,578.9198377107436 L395.29543992789576,569.5568391305211 M395.29543992789576,569.5568391305211 L391.048472451802,559.9571361688639 M391.048472451802,559.9571361688639 L388.2480568683295,550.1932192740301 M388.2480568683295,550.1932192740301 L386.9122360688391,540.3385255868593 M386.9122360688391,540.3385255868593 L387.04798936589765,530.4668726404507 M387.04798936589765,530.4668726404507 L388.6513072111298,520.6519038911624 M388.6513072111298,520.6519038911624 L391.7072612880775,510.9665370152317 M391.7072612880775,510.9665370152317 L396.1902365671543,501.4824455658311 M396.1902365671543,501.4824455658311 L402.06419438188686,492.2695181801477 M402.06419438188686,492.2695181801477 L409.2830111780289,483.395389730019 M409.2830111780289,483.395389730019 L417.79090595136984,474.92495423111177 M417.79090595136984,474.92495423111177 L427.52290089421643,466.91993786612585 M427.52290089421643,466.91993786612585 L438.405342345924,459.4384586037342 M438.405342345924,459.4384586037342 L450.35648589412506,452.5346654115004 M450.35648589412506,452.5346654115004 L463.2871233280769,446.25836962123327 M463.2871233280769,446.25836962123327 L477.1012352955983,440.6547306515365 M477.1012352955983,440.6547306515365 L491.69671728841473,435.7639666687591 M491.69671728841473,435.7639666687591 L506.9660687347514,431.62109746569826 M506.9660687347514,431.62109746569826 L522.79719436723,428.25572992450003 M522.79719436723,428.25572992450003 L539.0741559161443,425.6918813680868 M539.0741559161443,425.6918813680868 L555.6780001803346,423.9478226769333 M555.6780001803346,423.9478226769333 L572.4875290628291,423.0359703354081 M572.4875290628291,423.0359703354081 L589.3801673866474,422.96281734049126 M589.3801673866474,422.96281734049126 L606.2327676696073,423.7288750233906 M606.2327676696073,423.7288750233906 L622.9224509714919,425.3286982559482 M622.9224509714919,425.3286982559482 L639.3274330963776,427.75089692744876 M639.3274330963776,427.75089692744876 L655.3278562958864,430.9782159015942 M655.3278562958864,430.9782159015942 L670.8066235021953,434.98762638670394" stroke="black"  stroke-width="4"  fill="red"/></svg>